<svg width="295" height="251" viewBox="0 0 295 251" fill="none" xmlns="http://www.w3.org/2000/svg">
<path d="M105.83 30.4725C105.83 29.4805 106.166 28.6485 106.838 27.9765C107.51 27.3045 108.342 26.9685 109.334 26.9685C110.326 26.9685 111.158 27.3045 111.83 27.9765C112.502 28.6485 112.838 29.4805 112.838 30.4725C112.838 31.4325 112.502 32.2485 111.83 32.9205C111.158 33.5925 110.326 33.9285 109.334 33.9285C108.342 33.9285 107.51 33.5925 106.838 32.9205C106.166 32.2485 105.83 31.4325 105.83 30.4725Z" fill="#98BEE1"/>
<path d="M35.8089 30.4725C35.8089 29.4805 36.1449 28.6485 36.8169 27.9765C37.4889 27.3045 38.3209 26.9685 39.3129 26.9685C40.3049 26.9685 41.1369 27.3045 41.8089 27.9765C42.4809 28.6485 42.8169 29.4805 42.8169 30.4725C42.8169 31.4325 42.4809 32.2485 41.8089 32.9205C41.1369 33.5925 40.3049 33.9285 39.3129 33.9285C38.3209 33.9285 37.4889 33.5925 36.8169 32.9205C36.1449 32.2485 35.8089 31.4325 35.8089 30.4725Z" fill="#98BEE1"/>
<path d="M107.538 58.3883C107.538 57.3963 107.874 56.5642 108.546 55.8923C109.218 55.2202 110.05 54.8842 111.042 54.8842C112.034 54.8842 112.866 55.2202 113.538 55.8923C114.21 56.5642 114.546 57.3963 114.546 58.3883C114.546 59.3483 114.21 60.1643 113.538 60.8363C112.866 61.5082 112.034 61.8442 111.042 61.8442C110.05 61.8442 109.218 61.5082 108.546 60.8363C107.874 60.1643 107.538 59.3483 107.538 58.3883Z" fill="#98BEE1"/>
<path d="M107.538 110.232C107.538 109.24 107.874 108.408 108.546 107.736C109.218 107.064 110.05 106.728 111.042 106.728C112.034 106.728 112.866 107.064 113.538 107.736C114.21 108.408 114.546 109.24 114.546 110.232C114.546 111.192 114.21 112.008 113.538 112.68C112.866 113.352 112.034 113.688 111.042 113.688C110.05 113.688 109.218 113.352 108.546 112.68C107.874 112.008 107.538 111.192 107.538 110.232Z" fill="#98BEE1"/>
<path d="M72.6088 111.561C72.6088 110.569 72.9448 109.737 73.6168 109.065C74.2888 108.393 75.1208 108.057 76.1128 108.057C77.1048 108.057 77.9368 108.393 78.6088 109.065C79.2808 109.737 79.6168 110.569 79.6168 111.561C79.6168 112.521 79.2808 113.337 78.6088 114.009C77.9368 114.681 77.1048 115.017 76.1128 115.017C75.1208 115.017 74.2888 114.681 73.6168 114.009C72.9448 113.337 72.6088 112.521 72.6088 111.561Z" fill="#98BEE1"/>
<path d="M72.6088 84.9747C72.6088 83.9827 72.9448 83.1507 73.6168 82.4787C74.2888 81.8067 75.1208 81.4707 76.1128 81.4707C77.1048 81.4707 77.9368 81.8067 78.6088 82.4787C79.2808 83.1507 79.6168 83.9827 79.6168 84.9747C79.6168 85.9347 79.2808 86.7507 78.6088 87.4227C77.9368 88.0947 77.1048 88.4307 76.1128 88.4307C75.1208 88.4307 74.2888 88.0947 73.6168 87.4227C72.9448 86.7507 72.6088 85.9347 72.6088 84.9747Z" fill="#98BEE1"/>
<path d="M72.6088 58.3883C72.6088 57.3963 72.9448 56.5642 73.6168 55.8923C74.2888 55.2202 75.1208 54.8842 76.1128 54.8842C77.1048 54.8842 77.9368 55.2202 78.6088 55.8923C79.2808 56.5642 79.6168 57.3963 79.6168 58.3883C79.6168 59.3483 79.2808 60.1643 78.6088 60.8363C77.9368 61.5082 77.1048 61.8442 76.1128 61.8442C75.1208 61.8442 74.2888 61.5082 73.6168 60.8363C72.9448 60.1643 72.6088 59.3483 72.6088 58.3883Z" fill="#98BEE1"/>
<path d="M72.6088 30.4725C72.6088 29.4805 72.9448 28.6485 73.6168 27.9765C74.2888 27.3045 75.1208 26.9685 76.1128 26.9685C77.1048 26.9685 77.9368 27.3045 78.6088 27.9765C79.2808 28.6485 79.6168 29.4805 79.6168 30.4725C79.6168 31.4325 79.2808 32.2485 78.6088 32.9205C77.9368 33.5925 77.1048 33.9285 76.1128 33.9285C75.1208 33.9285 74.2888 33.5925 73.6168 32.9205C72.9448 32.2485 72.6088 31.4325 72.6088 30.4725Z" fill="#98BEE1"/>
<path d="M1.65216 30.4725C1.65216 29.4805 1.98816 28.6485 2.66016 27.9765C3.33216 27.3045 4.16416 26.9685 5.15616 26.9685C6.14816 26.9685 6.98016 27.3045 7.65216 27.9765C8.32416 28.6485 8.66016 29.4805 8.66016 30.4725C8.66016 31.4325 8.32416 32.2485 7.65216 32.9205C6.98016 33.5925 6.14816 33.9285 5.15616 33.9285C4.16416 33.9285 3.33216 33.5925 2.66016 32.9205C1.98816 32.2485 1.65216 31.4325 1.65216 30.4725Z" fill="#98BEE1"/>
<path d="M35.0363 110.232C35.0363 109.24 35.3723 108.408 36.0443 107.736C36.7163 107.064 37.5483 106.728 38.5403 106.728C39.5323 106.728 40.3643 107.064 41.0363 107.736C41.7083 108.408 42.0443 109.24 42.0443 110.232C42.0443 111.192 41.7083 112.008 41.0363 112.68C40.3643 113.352 39.5323 113.688 38.5403 113.688C37.5483 113.688 36.7163 113.352 36.0443 112.68C35.3723 112.008 35.0363 111.192 35.0363 110.232Z" fill="#98BEE1"/>
<path d="M0.879485 111.561C0.879485 110.569 1.21548 109.737 1.88748 109.065C2.55948 108.393 3.39148 108.057 4.38348 108.057C5.37548 108.057 6.20748 108.393 6.87949 109.065C7.55149 109.737 7.88749 110.569 7.88749 111.561C7.88749 112.521 7.55149 113.337 6.87949 114.009C6.20748 114.681 5.37548 115.017 4.38348 115.017C3.39148 115.017 2.55948 114.681 1.88748 114.009C1.21548 113.337 0.879485 112.521 0.879485 111.561Z" fill="#98BEE1"/>
<path d="M36.7441 59.7176C36.7441 58.7256 37.0801 57.8936 37.7521 57.2216C38.4241 56.5496 39.2561 56.2136 40.2481 56.2136C41.2401 56.2136 42.0721 56.5496 42.7441 57.2216C43.4161 57.8936 43.7521 58.7256 43.7521 59.7176C43.7521 60.6776 43.4161 61.4936 42.7441 62.1656C42.0721 62.8376 41.2401 63.1736 40.2481 63.1736C39.2561 63.1736 38.4241 62.8376 37.7521 62.1656C37.0801 61.4936 36.7441 60.6776 36.7441 59.7176Z" fill="#98BEE1"/>
<path d="M2.58749 58.3883C2.58749 57.3963 2.92349 56.5642 3.59549 55.8923C4.26749 55.2202 5.09949 54.8842 6.09149 54.8842C7.08349 54.8842 7.91549 55.2202 8.58749 55.8923C9.25949 56.5642 9.59549 57.3963 9.59549 58.3883C9.59549 59.3483 9.25949 60.1643 8.58749 60.8363C7.91549 61.5082 7.08349 61.8442 6.09149 61.8442C5.09949 61.8442 4.26749 61.5082 3.59549 60.8363C2.92349 60.1643 2.58749 59.3483 2.58749 58.3883Z" fill="#98BEE1"/>
<path d="M36.7441 84.9747C36.7441 83.9827 37.0801 83.1507 37.7521 82.4787C38.4241 81.8067 39.2561 81.4707 40.2481 81.4707C41.2401 81.4707 42.0721 81.8067 42.7441 82.4787C43.4161 83.1507 43.7521 83.9827 43.7521 84.9747C43.7521 85.9347 43.4161 86.7507 42.7441 87.4227C42.0721 88.0947 41.2401 88.4307 40.2481 88.4307C39.2561 88.4307 38.4241 88.0947 37.7521 87.4227C37.0801 86.7507 36.7441 85.9347 36.7441 84.9747Z" fill="#98BEE1"/>
<path d="M0.879485 84.9747C0.879485 83.9827 1.21548 83.1507 1.88748 82.4787C2.55948 81.8067 3.39148 81.4707 4.38348 81.4707C5.37548 81.4707 6.20748 81.8067 6.87949 82.4787C7.55149 83.1507 7.88749 83.9827 7.88749 84.9747C7.88749 85.9347 7.55149 86.7507 6.87949 87.4227C6.20748 88.0947 5.37548 88.4307 4.38348 88.4307C3.39148 88.4307 2.55948 88.0947 1.88748 87.4227C1.21548 86.7507 0.879485 85.9347 0.879485 84.9747Z" fill="#98BEE1"/>
<path d="M2.58749 139.477C2.58749 138.485 2.92349 137.653 3.59549 136.981C4.26749 136.309 5.09949 135.973 6.09149 135.973C7.08349 135.973 7.91549 136.309 8.58749 136.981C9.25949 137.653 9.59549 138.485 9.59549 139.477C9.59549 140.437 9.25949 141.253 8.58749 141.925C7.91549 142.597 7.08349 142.933 6.09149 142.933C5.09949 142.933 4.26749 142.597 3.59549 141.925C2.92349 141.253 2.58749 140.437 2.58749 139.477Z" fill="#98BEE1"/>
<path d="M107.538 84.9747C107.538 83.9827 107.874 83.1507 108.546 82.4787C109.218 81.8067 110.05 81.4707 111.042 81.4707C112.034 81.4707 112.866 81.8067 113.538 82.4787C114.21 83.1507 114.546 83.9827 114.546 84.9747C114.546 85.9347 114.21 86.7507 113.538 87.4227C112.866 88.0947 112.034 88.4307 111.042 88.4307C110.05 88.4307 109.218 88.0947 108.546 87.4227C107.874 86.7507 107.538 85.9347 107.538 84.9747Z" fill="#98BEE1"/>
<path d="M0.879485 167.393C0.879485 166.401 1.21548 165.569 1.88748 164.897C2.55948 164.225 3.39148 163.889 4.38348 163.889C5.37548 163.889 6.20748 164.225 6.87949 164.897C7.55149 165.569 7.88749 166.401 7.88749 167.393C7.88749 168.353 7.55149 169.169 6.87949 169.841C6.20748 170.513 5.37548 170.849 4.38348 170.849C3.39148 170.849 2.55948 170.513 1.88748 169.841C1.21548 169.169 0.879485 168.353 0.879485 167.393Z" fill="#98BEE1"/>
<path d="M0.879485 193.979C0.879485 192.987 1.21548 192.155 1.88748 191.483C2.55948 190.811 3.39148 190.475 4.38348 190.475C5.37548 190.475 6.20748 190.811 6.87949 191.483C7.55149 192.155 7.88749 192.987 7.88749 193.979C7.88749 194.939 7.55149 195.755 6.87949 196.427C6.20748 197.099 5.37548 197.435 4.38348 197.435C3.39148 197.435 2.55948 197.099 1.88748 196.427C1.21548 195.755 0.879485 194.939 0.879485 193.979Z" fill="#98BEE1"/>
<path d="M0.879485 220.565C0.879485 219.573 1.21548 218.741 1.88748 218.069C2.55948 217.397 3.39148 217.061 4.38348 217.061C5.37548 217.061 6.20748 217.397 6.87949 218.069C7.55149 218.741 7.88749 219.573 7.88749 220.565C7.88749 221.525 7.55149 222.341 6.87949 223.013C6.20748 223.685 5.37548 224.021 4.38348 224.021C3.39148 224.021 2.55948 223.685 1.88748 223.013C1.21548 222.341 0.879485 221.525 0.879485 220.565Z" fill="#98BEE1"/>
<path d="M35.8497 139.719C35.8497 138.727 36.1857 137.895 36.8577 137.223C37.5297 136.551 38.3617 136.215 39.3537 136.215C40.3457 136.215 41.1777 136.551 41.8497 137.223C42.5217 137.895 42.8577 138.727 42.8577 139.719C42.8577 140.679 42.5217 141.495 41.8497 142.167C41.1777 142.839 40.3457 143.175 39.3537 143.175C38.3617 143.175 37.5297 142.839 36.8577 142.167C36.1857 141.495 35.8497 140.679 35.8497 139.719Z" fill="#98BEE1"/>
<path d="M35.8497 167.393C35.8497 166.401 36.1857 165.569 36.8577 164.897C37.5297 164.225 38.3617 163.889 39.3537 163.889C40.3457 163.889 41.1777 164.225 41.8497 164.897C42.5217 165.569 42.8577 166.401 42.8577 167.393C42.8577 168.353 42.5217 169.169 41.8497 169.841C41.1777 170.513 40.3457 170.849 39.3537 170.849C38.3617 170.849 37.5297 170.513 36.8577 169.841C36.1857 169.169 35.8497 168.353 35.8497 167.393Z" fill="#98BEE1"/>
<path d="M35.8497 167.393C35.8497 166.401 36.1857 165.569 36.8577 164.897C37.5297 164.225 38.3617 163.889 39.3537 163.889C40.3457 163.889 41.1777 164.225 41.8497 164.897C42.5217 165.569 42.8577 166.401 42.8577 167.393C42.8577 168.353 42.5217 169.169 41.8497 169.841C41.1777 170.513 40.3457 170.849 39.3537 170.849C38.3617 170.849 37.5297 170.513 36.8577 169.841C36.1857 169.169 35.8497 168.353 35.8497 167.393Z" fill="#98BEE1"/>
<path d="M35.8497 193.979C35.8497 192.987 36.1857 192.155 36.8577 191.483C37.5297 190.811 38.3617 190.475 39.3537 190.475C40.3457 190.475 41.1777 190.811 41.8497 191.483C42.5217 192.155 42.8577 192.987 42.8577 193.979C42.8577 194.939 42.5217 195.755 41.8497 196.427C41.1777 197.099 40.3457 197.435 39.3537 197.435C38.3617 197.435 37.5297 197.099 36.8577 196.427C36.1857 195.755 35.8497 194.939 35.8497 193.979Z" fill="#98BEE1"/>
<path d="M35.8497 220.565C35.8497 219.573 36.1857 218.741 36.8577 218.069C37.5297 217.397 38.3617 217.061 39.3537 217.061C40.3457 217.061 41.1777 217.397 41.8497 218.069C42.5217 218.741 42.8577 219.573 42.8577 220.565C42.8577 221.525 42.5217 222.341 41.8497 223.013C41.1777 223.685 40.3457 224.021 39.3537 224.021C38.3617 224.021 37.5297 223.685 36.8577 223.013C36.1857 222.341 35.8497 221.525 35.8497 220.565Z" fill="#98BEE1"/>
<path d="M72.5682 139.719C72.5682 138.727 72.9042 137.895 73.5762 137.223C74.2482 136.551 75.0802 136.215 76.0722 136.215C77.0642 136.215 77.8962 136.551 78.5682 137.223C79.2402 137.895 79.5762 138.727 79.5762 139.719C79.5762 140.679 79.2402 141.495 78.5682 142.167C77.8962 142.839 77.0642 143.175 76.0722 143.175C75.0802 143.175 74.2482 142.839 73.5762 142.167C72.9042 141.495 72.5682 140.679 72.5682 139.719Z" fill="#98BEE1"/>
<path d="M72.5682 167.393C72.5682 166.401 72.9042 165.569 73.5762 164.897C74.2482 164.225 75.0802 163.889 76.0722 163.889C77.0642 163.889 77.8962 164.225 78.5682 164.897C79.2402 165.569 79.5762 166.401 79.5762 167.393C79.5762 168.353 79.2402 169.169 78.5682 169.841C77.8962 170.513 77.0642 170.849 76.0722 170.849C75.0802 170.849 74.2482 170.513 73.5762 169.841C72.9042 169.169 72.5682 168.353 72.5682 167.393Z" fill="#98BEE1"/>
<path d="M72.5682 167.393C72.5682 166.401 72.9042 165.569 73.5762 164.897C74.2482 164.225 75.0802 163.889 76.0722 163.889C77.0642 163.889 77.8962 164.225 78.5682 164.897C79.2402 165.569 79.5762 166.401 79.5762 167.393C79.5762 168.353 79.2402 169.169 78.5682 169.841C77.8962 170.513 77.0642 170.849 76.0722 170.849C75.0802 170.849 74.2482 170.513 73.5762 169.841C72.9042 169.169 72.5682 168.353 72.5682 167.393Z" fill="#98BEE1"/>
<path d="M72.5682 193.979C72.5682 192.987 72.9042 192.155 73.5762 191.483C74.2482 190.811 75.0802 190.475 76.0722 190.475C77.0642 190.475 77.8962 190.811 78.5682 191.483C79.2402 192.155 79.5762 192.987 79.5762 193.979C79.5762 194.939 79.2402 195.755 78.5682 196.427C77.8962 197.099 77.0642 197.435 76.0722 197.435C75.0802 197.435 74.2482 197.099 73.5762 196.427C72.9042 195.755 72.5682 194.939 72.5682 193.979Z" fill="#98BEE1"/>
<path d="M72.5682 220.565C72.5682 219.573 72.9042 218.741 73.5762 218.069C74.2482 217.397 75.0802 217.061 76.0722 217.061C77.0642 217.061 77.8962 217.397 78.5682 218.069C79.2402 218.741 79.5762 219.573 79.5762 220.565C79.5762 221.525 79.2402 222.341 78.5682 223.013C77.8962 223.685 77.0642 224.021 76.0722 224.021C75.0802 224.021 74.2482 223.685 73.5762 223.013C72.9042 222.341 72.5682 221.525 72.5682 220.565Z" fill="#98BEE1"/>
<path d="M106.766 139.477C106.766 138.485 107.102 137.653 107.774 136.981C108.446 136.309 109.278 135.973 110.27 135.973C111.262 135.973 112.094 136.309 112.766 136.981C113.438 137.653 113.774 138.485 113.774 139.477C113.774 140.437 113.438 141.253 112.766 141.925C112.094 142.597 111.262 142.933 110.27 142.933C109.278 142.933 108.446 142.597 107.774 141.925C107.102 141.253 106.766 140.437 106.766 139.477Z" fill="#98BEE1"/>
<path d="M107.538 167.393C107.538 166.401 107.874 165.569 108.546 164.897C109.218 164.225 110.05 163.889 111.042 163.889C112.034 163.889 112.866 164.225 113.538 164.897C114.21 165.569 114.546 166.401 114.546 167.393C114.546 168.353 114.21 169.169 113.538 169.841C112.866 170.513 112.034 170.849 111.042 170.849C110.05 170.849 109.218 170.513 108.546 169.841C107.874 169.169 107.538 168.353 107.538 167.393Z" fill="#98BEE1"/>
<path d="M107.538 167.393C107.538 166.401 107.874 165.569 108.546 164.897C109.218 164.225 110.05 163.889 111.042 163.889C112.034 163.889 112.866 164.225 113.538 164.897C114.21 165.569 114.546 166.401 114.546 167.393C114.546 168.353 114.21 169.169 113.538 169.841C112.866 170.513 112.034 170.849 111.042 170.849C110.05 170.849 109.218 170.513 108.546 169.841C107.874 169.169 107.538 168.353 107.538 167.393Z" fill="#98BEE1"/>
<path d="M107.538 193.979C107.538 192.987 107.874 192.155 108.546 191.483C109.218 190.811 110.05 190.475 111.042 190.475C112.034 190.475 112.866 190.811 113.538 191.483C114.21 192.155 114.546 192.987 114.546 193.979C114.546 194.939 114.21 195.755 113.538 196.427C112.866 197.099 112.034 197.435 111.042 197.435C110.05 197.435 109.218 197.099 108.546 196.427C107.874 195.755 107.538 194.939 107.538 193.979Z" fill="#98BEE1"/>
<path d="M107.538 220.565C107.538 219.573 107.874 218.741 108.546 218.069C109.218 217.397 110.05 217.061 111.042 217.061C112.034 217.061 112.866 217.397 113.538 218.069C114.21 218.741 114.546 219.573 114.546 220.565C114.546 221.525 114.21 222.341 113.538 223.013C112.866 223.685 112.034 224.021 111.042 224.021C110.05 224.021 109.218 223.685 108.546 223.013C107.874 222.341 107.538 221.525 107.538 220.565Z" fill="#98BEE1"/>
<path d="M250.956 30.4725C250.956 29.4805 251.292 28.6485 251.964 27.9765C252.636 27.3045 253.468 26.9685 254.46 26.9685C255.452 26.9685 256.284 27.3045 256.956 27.9765C257.628 28.6485 257.964 29.4805 257.964 30.4725C257.964 31.4325 257.628 32.2485 256.956 32.9205C256.284 33.5925 255.452 33.9285 254.46 33.9285C253.468 33.9285 252.636 33.5925 251.964 32.9205C251.292 32.2485 250.956 31.4325 250.956 30.4725Z" fill="#98BEE1"/>
<path d="M180.935 30.4725C180.935 29.4805 181.271 28.6485 181.943 27.9765C182.615 27.3045 183.447 26.9685 184.439 26.9685C185.431 26.9685 186.263 27.3045 186.935 27.9765C187.607 28.6485 187.943 29.4805 187.943 30.4725C187.943 31.4325 187.607 32.2485 186.935 32.9205C186.263 33.5925 185.431 33.9285 184.439 33.9285C183.447 33.9285 182.615 33.5925 181.943 32.9205C181.271 32.2485 180.935 31.4325 180.935 30.4725Z" fill="#98BEE1"/>
<path d="M252.664 58.3882C252.664 57.3962 253 56.5642 253.672 55.8922C254.344 55.2202 255.176 54.8842 256.168 54.8842C257.16 54.8842 257.992 55.2202 258.664 55.8922C259.336 56.5642 259.672 57.3962 259.672 58.3882C259.672 59.3482 259.336 60.1642 258.664 60.8362C257.992 61.5082 257.16 61.8442 256.168 61.8442C255.176 61.8442 254.344 61.5082 253.672 60.8362C253 60.1642 252.664 59.3482 252.664 58.3882Z" fill="#98BEE1"/>
<path d="M252.664 110.232C252.664 109.24 253 108.408 253.672 107.736C254.344 107.064 255.176 106.728 256.168 106.728C257.16 106.728 257.992 107.064 258.664 107.736C259.336 108.408 259.672 109.24 259.672 110.232C259.672 111.192 259.336 112.008 258.664 112.68C257.992 113.352 257.16 113.688 256.168 113.688C255.176 113.688 254.344 113.352 253.672 112.68C253 112.008 252.664 111.192 252.664 110.232Z" fill="#98BEE1"/>
<path d="M217.734 111.561C217.734 110.569 218.07 109.737 218.742 109.065C219.414 108.393 220.246 108.057 221.238 108.057C222.23 108.057 223.062 108.393 223.734 109.065C224.406 109.737 224.742 110.569 224.742 111.561C224.742 112.521 224.406 113.337 223.734 114.009C223.062 114.681 222.23 115.017 221.238 115.017C220.246 115.017 219.414 114.681 218.742 114.009C218.07 113.337 217.734 112.521 217.734 111.561Z" fill="#98BEE1"/>
<path d="M217.734 84.9747C217.734 83.9827 218.07 83.1507 218.742 82.4787C219.414 81.8067 220.246 81.4707 221.238 81.4707C222.23 81.4707 223.062 81.8067 223.734 82.4787C224.406 83.1507 224.742 83.9827 224.742 84.9747C224.742 85.9347 224.406 86.7507 223.734 87.4227C223.062 88.0947 222.23 88.4307 221.238 88.4307C220.246 88.4307 219.414 88.0947 218.742 87.4227C218.07 86.7507 217.734 85.9347 217.734 84.9747Z" fill="#98BEE1"/>
<path d="M217.734 58.3882C217.734 57.3962 218.07 56.5642 218.742 55.8922C219.414 55.2202 220.246 54.8842 221.238 54.8842C222.23 54.8842 223.062 55.2202 223.734 55.8922C224.406 56.5642 224.742 57.3962 224.742 58.3882C224.742 59.3482 224.406 60.1642 223.734 60.8362C223.062 61.5082 222.23 61.8442 221.238 61.8442C220.246 61.8442 219.414 61.5082 218.742 60.8362C218.07 60.1642 217.734 59.3482 217.734 58.3882Z" fill="#98BEE1"/>
<path d="M217.735 30.4725C217.735 29.4805 218.071 28.6485 218.743 27.9765C219.415 27.3045 220.247 26.9685 221.239 26.9685C222.231 26.9685 223.063 27.3045 223.735 27.9765C224.407 28.6485 224.743 29.4805 224.743 30.4725C224.743 31.4325 224.407 32.2485 223.735 32.9205C223.063 33.5925 222.231 33.9285 221.239 33.9285C220.247 33.9285 219.415 33.5925 218.743 32.9205C218.071 32.2485 217.735 31.4325 217.735 30.4725Z" fill="#98BEE1"/>
<path d="M146.778 30.4725C146.778 29.4805 147.114 28.6485 147.786 27.9765C148.458 27.3045 149.29 26.9685 150.282 26.9685C151.274 26.9685 152.106 27.3045 152.778 27.9765C153.45 28.6485 153.786 29.4805 153.786 30.4725C153.786 31.4325 153.45 32.2485 152.778 32.9205C152.106 33.5925 151.274 33.9285 150.282 33.9285C149.29 33.9285 148.458 33.5925 147.786 32.9205C147.114 32.2485 146.778 31.4325 146.778 30.4725Z" fill="#98BEE1"/>
<path d="M180.162 110.232C180.162 109.24 180.498 108.408 181.17 107.736C181.842 107.064 182.674 106.728 183.666 106.728C184.658 106.728 185.49 107.064 186.162 107.736C186.834 108.408 187.17 109.24 187.17 110.232C187.17 111.192 186.834 112.008 186.162 112.68C185.49 113.352 184.658 113.688 183.666 113.688C182.674 113.688 181.842 113.352 181.17 112.68C180.498 112.008 180.162 111.192 180.162 110.232Z" fill="#98BEE1"/>
<path d="M146.005 111.561C146.005 110.569 146.341 109.737 147.013 109.065C147.685 108.393 148.517 108.057 149.509 108.057C150.501 108.057 151.333 108.393 152.005 109.065C152.677 109.737 153.013 110.569 153.013 111.561C153.013 112.521 152.677 113.337 152.005 114.009C151.333 114.681 150.501 115.017 149.509 115.017C148.517 115.017 147.685 114.681 147.013 114.009C146.341 113.337 146.005 112.521 146.005 111.561Z" fill="#98BEE1"/>
<path d="M181.87 59.7176C181.87 58.7256 182.206 57.8936 182.878 57.2216C183.55 56.5496 184.382 56.2136 185.374 56.2136C186.366 56.2136 187.198 56.5496 187.87 57.2216C188.542 57.8936 188.878 58.7256 188.878 59.7176C188.878 60.6776 188.542 61.4936 187.87 62.1656C187.198 62.8376 186.366 63.1736 185.374 63.1736C184.382 63.1736 183.55 62.8376 182.878 62.1656C182.206 61.4936 181.87 60.6776 181.87 59.7176Z" fill="#98BEE1"/>
<path d="M147.713 58.3882C147.713 57.3962 148.049 56.5642 148.721 55.8922C149.393 55.2202 150.225 54.8842 151.217 54.8842C152.209 54.8842 153.041 55.2202 153.713 55.8922C154.385 56.5642 154.721 57.3962 154.721 58.3882C154.721 59.3482 154.385 60.1642 153.713 60.8362C153.041 61.5082 152.209 61.8442 151.217 61.8442C150.225 61.8442 149.393 61.5082 148.721 60.8362C148.049 60.1642 147.713 59.3482 147.713 58.3882Z" fill="#98BEE1"/>
<path d="M181.87 84.9747C181.87 83.9827 182.206 83.1507 182.878 82.4787C183.55 81.8067 184.382 81.4707 185.374 81.4707C186.366 81.4707 187.198 81.8067 187.87 82.4787C188.542 83.1507 188.878 83.9827 188.878 84.9747C188.878 85.9347 188.542 86.7507 187.87 87.4227C187.198 88.0947 186.366 88.4307 185.374 88.4307C184.382 88.4307 183.55 88.0947 182.878 87.4227C182.206 86.7507 181.87 85.9347 181.87 84.9747Z" fill="#98BEE1"/>
<path d="M146.005 84.9747C146.005 83.9827 146.341 83.1507 147.013 82.4787C147.685 81.8067 148.517 81.4707 149.509 81.4707C150.501 81.4707 151.333 81.8067 152.005 82.4787C152.677 83.1507 153.013 83.9827 153.013 84.9747C153.013 85.9347 152.677 86.7507 152.005 87.4227C151.333 88.0947 150.501 88.4307 149.509 88.4307C148.517 88.4307 147.685 88.0947 147.013 87.4227C146.341 86.7507 146.005 85.9347 146.005 84.9747Z" fill="#98BEE1"/>
<path d="M147.713 139.477C147.713 138.485 148.049 137.653 148.721 136.981C149.393 136.309 150.225 135.973 151.217 135.973C152.209 135.973 153.041 136.309 153.713 136.981C154.385 137.653 154.721 138.485 154.721 139.477C154.721 140.437 154.385 141.253 153.713 141.925C153.041 142.597 152.209 142.933 151.217 142.933C150.225 142.933 149.393 142.597 148.721 141.925C148.049 141.253 147.713 140.437 147.713 139.477Z" fill="#98BEE1"/>
<path d="M252.664 84.9747C252.664 83.9827 253 83.1507 253.672 82.4787C254.344 81.8067 255.176 81.4707 256.168 81.4707C257.16 81.4707 257.992 81.8067 258.664 82.4787C259.336 83.1507 259.672 83.9827 259.672 84.9747C259.672 85.9347 259.336 86.7507 258.664 87.4227C257.992 88.0947 257.16 88.4307 256.168 88.4307C255.176 88.4307 254.344 88.0947 253.672 87.4227C253 86.7507 252.664 85.9347 252.664 84.9747Z" fill="#98BEE1"/>
<path d="M146.005 167.393C146.005 166.401 146.341 165.569 147.013 164.897C147.685 164.225 148.517 163.889 149.509 163.889C150.501 163.889 151.333 164.225 152.005 164.897C152.677 165.569 153.013 166.401 153.013 167.393C153.013 168.353 152.677 169.169 152.005 169.841C151.333 170.513 150.501 170.849 149.509 170.849C148.517 170.849 147.685 170.513 147.013 169.841C146.341 169.169 146.005 168.353 146.005 167.393Z" fill="#98BEE1"/>
<path d="M146.005 193.979C146.005 192.987 146.341 192.155 147.013 191.483C147.685 190.811 148.517 190.475 149.509 190.475C150.501 190.475 151.333 190.811 152.005 191.483C152.677 192.155 153.013 192.987 153.013 193.979C153.013 194.939 152.677 195.755 152.005 196.427C151.333 197.099 150.501 197.435 149.509 197.435C148.517 197.435 147.685 197.099 147.013 196.427C146.341 195.755 146.005 194.939 146.005 193.979Z" fill="#98BEE1"/>
<path d="M146.005 220.565C146.005 219.573 146.341 218.741 147.013 218.069C147.685 217.397 148.517 217.061 149.509 217.061C150.501 217.061 151.333 217.397 152.005 218.069C152.677 218.741 153.013 219.573 153.013 220.565C153.013 221.525 152.677 222.341 152.005 223.013C151.333 223.685 150.501 224.021 149.509 224.021C148.517 224.021 147.685 223.685 147.013 223.013C146.341 222.341 146.005 221.525 146.005 220.565Z" fill="#98BEE1"/>
<path d="M180.975 139.719C180.975 138.727 181.311 137.895 181.983 137.223C182.655 136.551 183.487 136.215 184.479 136.215C185.471 136.215 186.303 136.551 186.975 137.223C187.647 137.895 187.983 138.727 187.983 139.719C187.983 140.679 187.647 141.495 186.975 142.167C186.303 142.839 185.471 143.175 184.479 143.175C183.487 143.175 182.655 142.839 181.983 142.167C181.311 141.495 180.975 140.679 180.975 139.719Z" fill="#98BEE1"/>
<path d="M180.975 167.393C180.975 166.401 181.311 165.569 181.983 164.897C182.655 164.225 183.487 163.889 184.479 163.889C185.471 163.889 186.303 164.225 186.975 164.897C187.647 165.569 187.983 166.401 187.983 167.393C187.983 168.353 187.647 169.169 186.975 169.841C186.303 170.513 185.471 170.849 184.479 170.849C183.487 170.849 182.655 170.513 181.983 169.841C181.311 169.169 180.975 168.353 180.975 167.393Z" fill="#98BEE1"/>
<path d="M180.975 167.393C180.975 166.401 181.311 165.569 181.983 164.897C182.655 164.225 183.487 163.889 184.479 163.889C185.471 163.889 186.303 164.225 186.975 164.897C187.647 165.569 187.983 166.401 187.983 167.393C187.983 168.353 187.647 169.169 186.975 169.841C186.303 170.513 185.471 170.849 184.479 170.849C183.487 170.849 182.655 170.513 181.983 169.841C181.311 169.169 180.975 168.353 180.975 167.393Z" fill="#98BEE1"/>
<path d="M180.975 193.979C180.975 192.987 181.311 192.155 181.983 191.483C182.655 190.811 183.487 190.475 184.479 190.475C185.471 190.475 186.303 190.811 186.975 191.483C187.647 192.155 187.983 192.987 187.983 193.979C187.983 194.939 187.647 195.755 186.975 196.427C186.303 197.099 185.471 197.435 184.479 197.435C183.487 197.435 182.655 197.099 181.983 196.427C181.311 195.755 180.975 194.939 180.975 193.979Z" fill="#98BEE1"/>
<path d="M180.975 220.565C180.975 219.573 181.311 218.741 181.983 218.069C182.655 217.397 183.487 217.061 184.479 217.061C185.471 217.061 186.303 217.397 186.975 218.069C187.647 218.741 187.983 219.573 187.983 220.565C187.983 221.525 187.647 222.341 186.975 223.013C186.303 223.685 185.471 224.021 184.479 224.021C183.487 224.021 182.655 223.685 181.983 223.013C181.311 222.341 180.975 221.525 180.975 220.565Z" fill="#98BEE1"/>
<path d="M217.694 139.719C217.694 138.727 218.03 137.895 218.702 137.223C219.374 136.551 220.206 136.215 221.198 136.215C222.19 136.215 223.022 136.551 223.694 137.223C224.366 137.895 224.702 138.727 224.702 139.719C224.702 140.679 224.366 141.495 223.694 142.167C223.022 142.839 222.19 143.175 221.198 143.175C220.206 143.175 219.374 142.839 218.702 142.167C218.03 141.495 217.694 140.679 217.694 139.719Z" fill="#98BEE1"/>
<path d="M217.694 167.393C217.694 166.401 218.03 165.569 218.702 164.897C219.374 164.225 220.206 163.889 221.198 163.889C222.19 163.889 223.022 164.225 223.694 164.897C224.366 165.569 224.702 166.401 224.702 167.393C224.702 168.353 224.366 169.169 223.694 169.841C223.022 170.513 222.19 170.849 221.198 170.849C220.206 170.849 219.374 170.513 218.702 169.841C218.03 169.169 217.694 168.353 217.694 167.393Z" fill="#98BEE1"/>
<path d="M217.694 167.393C217.694 166.401 218.03 165.569 218.702 164.897C219.374 164.225 220.206 163.889 221.198 163.889C222.19 163.889 223.022 164.225 223.694 164.897C224.366 165.569 224.702 166.401 224.702 167.393C224.702 168.353 224.366 169.169 223.694 169.841C223.022 170.513 222.19 170.849 221.198 170.849C220.206 170.849 219.374 170.513 218.702 169.841C218.03 169.169 217.694 168.353 217.694 167.393Z" fill="#98BEE1"/>
<path d="M217.694 193.979C217.694 192.987 218.03 192.155 218.702 191.483C219.374 190.811 220.206 190.475 221.198 190.475C222.19 190.475 223.022 190.811 223.694 191.483C224.366 192.155 224.702 192.987 224.702 193.979C224.702 194.939 224.366 195.755 223.694 196.427C223.022 197.099 222.19 197.435 221.198 197.435C220.206 197.435 219.374 197.099 218.702 196.427C218.03 195.755 217.694 194.939 217.694 193.979Z" fill="#98BEE1"/>
<path d="M217.694 220.565C217.694 219.573 218.03 218.741 218.702 218.069C219.374 217.397 220.206 217.061 221.198 217.061C222.19 217.061 223.022 217.397 223.694 218.069C224.366 218.741 224.702 219.573 224.702 220.565C224.702 221.525 224.366 222.341 223.694 223.013C223.022 223.685 222.19 224.021 221.198 224.021C220.206 224.021 219.374 223.685 218.702 223.013C218.03 222.341 217.694 221.525 217.694 220.565Z" fill="#98BEE1"/>
<path d="M251.891 139.477C251.891 138.485 252.227 137.653 252.899 136.981C253.571 136.309 254.403 135.973 255.395 135.973C256.387 135.973 257.219 136.309 257.891 136.981C258.563 137.653 258.899 138.485 258.899 139.477C258.899 140.437 258.563 141.253 257.891 141.925C257.219 142.597 256.387 142.933 255.395 142.933C254.403 142.933 253.571 142.597 252.899 141.925C252.227 141.253 251.891 140.437 251.891 139.477Z" fill="#98BEE1"/>
<path d="M252.664 167.393C252.664 166.401 253 165.569 253.672 164.897C254.344 164.225 255.176 163.889 256.168 163.889C257.16 163.889 257.992 164.225 258.664 164.897C259.336 165.569 259.672 166.401 259.672 167.393C259.672 168.353 259.336 169.169 258.664 169.841C257.992 170.513 257.16 170.849 256.168 170.849C255.176 170.849 254.344 170.513 253.672 169.841C253 169.169 252.664 168.353 252.664 167.393Z" fill="#98BEE1"/>
<path d="M252.664 167.393C252.664 166.401 253 165.569 253.672 164.897C254.344 164.225 255.176 163.889 256.168 163.889C257.16 163.889 257.992 164.225 258.664 164.897C259.336 165.569 259.672 166.401 259.672 167.393C259.672 168.353 259.336 169.169 258.664 169.841C257.992 170.513 257.16 170.849 256.168 170.849C255.176 170.849 254.344 170.513 253.672 169.841C253 169.169 252.664 168.353 252.664 167.393Z" fill="#98BEE1"/>
<path d="M252.664 193.979C252.664 192.987 253 192.155 253.672 191.483C254.344 190.811 255.176 190.475 256.168 190.475C257.16 190.475 257.992 190.811 258.664 191.483C259.336 192.155 259.672 192.987 259.672 193.979C259.672 194.939 259.336 195.755 258.664 196.427C257.992 197.099 257.16 197.435 256.168 197.435C255.176 197.435 254.344 197.099 253.672 196.427C253 195.755 252.664 194.939 252.664 193.979Z" fill="#98BEE1"/>
<path d="M252.664 220.565C252.664 219.573 253 218.741 253.672 218.069C254.344 217.397 255.176 217.061 256.168 217.061C257.16 217.061 257.992 217.397 258.664 218.069C259.336 218.741 259.672 219.573 259.672 220.565C259.672 221.525 259.336 222.341 258.664 223.013C257.992 223.685 257.16 224.021 256.168 224.021C255.176 224.021 254.344 223.685 253.672 223.013C253 222.341 252.664 221.525 252.664 220.565Z" fill="#98BEE1"/>
</svg>
