<svg width="159" height="251" viewBox="0 0 159 251" fill="none" xmlns="http://www.w3.org/2000/svg">
<path d="M103.956 30.4725C103.956 29.4805 104.292 28.6485 104.964 27.9765C105.636 27.3045 106.468 26.9685 107.46 26.9685C108.452 26.9685 109.284 27.3045 109.956 27.9765C110.628 28.6485 110.964 29.4805 110.964 30.4725C110.964 31.4325 110.628 32.2485 109.956 32.9205C109.284 33.5925 108.452 33.9285 107.46 33.9285C106.468 33.9285 105.636 33.5925 104.964 32.9205C104.292 32.2485 103.956 31.4325 103.956 30.4725Z" fill="#98BEE1"/>
<path d="M33.9346 30.4725C33.9346 29.4805 34.2706 28.6485 34.9426 27.9765C35.6146 27.3045 36.4466 26.9685 37.4386 26.9685C38.4306 26.9685 39.2626 27.3045 39.9346 27.9765C40.6066 28.6485 40.9426 29.4805 40.9426 30.4725C40.9426 31.4325 40.6066 32.2485 39.9346 32.9205C39.2626 33.5925 38.4306 33.9285 37.4386 33.9285C36.4466 33.9285 35.6146 33.5925 34.9426 32.9205C34.2706 32.2485 33.9346 31.4325 33.9346 30.4725Z" fill="#98BEE1"/>
<path d="M105.664 58.3882C105.664 57.3962 106 56.5642 106.672 55.8922C107.344 55.2202 108.176 54.8842 109.168 54.8842C110.16 54.8842 110.992 55.2202 111.664 55.8922C112.336 56.5642 112.672 57.3962 112.672 58.3882C112.672 59.3482 112.336 60.1642 111.664 60.8362C110.992 61.5082 110.16 61.8442 109.168 61.8442C108.176 61.8442 107.344 61.5082 106.672 60.8362C106 60.1642 105.664 59.3482 105.664 58.3882Z" fill="#98BEE1"/>
<path d="M105.664 110.232C105.664 109.24 106 108.408 106.672 107.736C107.344 107.064 108.176 106.728 109.168 106.728C110.16 106.728 110.992 107.064 111.664 107.736C112.336 108.408 112.672 109.24 112.672 110.232C112.672 111.192 112.336 112.008 111.664 112.68C110.992 113.352 110.16 113.688 109.168 113.688C108.176 113.688 107.344 113.352 106.672 112.68C106 112.008 105.664 111.192 105.664 110.232Z" fill="#98BEE1"/>
<path d="M70.7344 111.561C70.7344 110.569 71.0704 109.737 71.7424 109.065C72.4144 108.393 73.2464 108.057 74.2384 108.057C75.2304 108.057 76.0624 108.393 76.7344 109.065C77.4064 109.737 77.7424 110.569 77.7424 111.561C77.7424 112.521 77.4064 113.337 76.7344 114.009C76.0624 114.681 75.2304 115.017 74.2384 115.017C73.2464 115.017 72.4144 114.681 71.7424 114.009C71.0704 113.337 70.7344 112.521 70.7344 111.561Z" fill="#98BEE1"/>
<path d="M70.7344 84.9747C70.7344 83.9827 71.0704 83.1507 71.7424 82.4787C72.4144 81.8067 73.2464 81.4707 74.2384 81.4707C75.2304 81.4707 76.0624 81.8067 76.7344 82.4787C77.4064 83.1507 77.7424 83.9827 77.7424 84.9747C77.7424 85.9347 77.4064 86.7507 76.7344 87.4227C76.0624 88.0947 75.2304 88.4307 74.2384 88.4307C73.2464 88.4307 72.4144 88.0947 71.7424 87.4227C71.0704 86.7507 70.7344 85.9347 70.7344 84.9747Z" fill="#98BEE1"/>
<path d="M70.7344 58.3882C70.7344 57.3962 71.0704 56.5642 71.7424 55.8922C72.4144 55.2202 73.2464 54.8842 74.2384 54.8842C75.2304 54.8842 76.0624 55.2202 76.7344 55.8922C77.4064 56.5642 77.7424 57.3962 77.7424 58.3882C77.7424 59.3482 77.4064 60.1642 76.7344 60.8362C76.0624 61.5082 75.2304 61.8442 74.2384 61.8442C73.2464 61.8442 72.4144 61.5082 71.7424 60.8362C71.0704 60.1642 70.7344 59.3482 70.7344 58.3882Z" fill="#98BEE1"/>
<path d="M70.7347 30.4725C70.7347 29.4805 71.0707 28.6485 71.7427 27.9765C72.4147 27.3045 73.2467 26.9685 74.2387 26.9685C75.2307 26.9685 76.0627 27.3045 76.7347 27.9765C77.4067 28.6485 77.7427 29.4805 77.7427 30.4725C77.7427 31.4325 77.4067 32.2485 76.7347 32.9205C76.0627 33.5925 75.2307 33.9285 74.2387 33.9285C73.2467 33.9285 72.4147 33.5925 71.7427 32.9205C71.0707 32.2485 70.7347 31.4325 70.7347 30.4725Z" fill="#98BEE1"/>
<path d="M-0.222108 30.4725C-0.222108 29.4805 0.113892 28.6485 0.785892 27.9765C1.45789 27.3045 2.28989 26.9685 3.28189 26.9685C4.27389 26.9685 5.10589 27.3045 5.77789 27.9765C6.44989 28.6485 6.78589 29.4805 6.78589 30.4725C6.78589 31.4325 6.44989 32.2485 5.77789 32.9205C5.10589 33.5925 4.27389 33.9285 3.28189 33.9285C2.28989 33.9285 1.45789 33.5925 0.785892 32.9205C0.113892 32.2485 -0.222108 31.4325 -0.222108 30.4725Z" fill="#98BEE1"/>
<path d="M33.1621 110.232C33.1621 109.24 33.4981 108.408 34.1701 107.736C34.8421 107.064 35.6741 106.728 36.6661 106.728C37.6581 106.728 38.4901 107.064 39.1621 107.736C39.8341 108.408 40.1701 109.24 40.1701 110.232C40.1701 111.192 39.8341 112.008 39.1621 112.68C38.4901 113.352 37.6581 113.688 36.6661 113.688C35.6741 113.688 34.8421 113.352 34.1701 112.68C33.4981 112.008 33.1621 111.192 33.1621 110.232Z" fill="#98BEE1"/>
<path d="M-0.994691 111.561C-0.994691 110.569 -0.658691 109.737 0.0133086 109.065C0.685309 108.393 1.51731 108.057 2.50931 108.057C3.50131 108.057 4.33331 108.393 5.00531 109.065C5.67731 109.737 6.01331 110.569 6.01331 111.561C6.01331 112.521 5.67731 113.337 5.00531 114.009C4.33331 114.681 3.50131 115.017 2.50931 115.017C1.51731 115.017 0.685309 114.681 0.0133086 114.009C-0.658691 113.337 -0.994691 112.521 -0.994691 111.561Z" fill="#98BEE1"/>
<path d="M34.8699 59.7176C34.8699 58.7256 35.2059 57.8936 35.8779 57.2216C36.5499 56.5496 37.3819 56.2136 38.3739 56.2136C39.3659 56.2136 40.1979 56.5496 40.8699 57.2216C41.5419 57.8936 41.8779 58.7256 41.8779 59.7176C41.8779 60.6776 41.5419 61.4936 40.8699 62.1656C40.1979 62.8376 39.3659 63.1736 38.3739 63.1736C37.3819 63.1736 36.5499 62.8376 35.8779 62.1656C35.2059 61.4936 34.8699 60.6776 34.8699 59.7176Z" fill="#98BEE1"/>
<path d="M0.713316 58.3882C0.713316 57.3962 1.04932 56.5642 1.72132 55.8922C2.39332 55.2202 3.22532 54.8842 4.21732 54.8842C5.20932 54.8842 6.04132 55.2202 6.71332 55.8922C7.38532 56.5642 7.72132 57.3962 7.72132 58.3882C7.72132 59.3482 7.38532 60.1642 6.71332 60.8362C6.04132 61.5082 5.20932 61.8442 4.21732 61.8442C3.22532 61.8442 2.39332 61.5082 1.72132 60.8362C1.04932 60.1642 0.713316 59.3482 0.713316 58.3882Z" fill="#98BEE1"/>
<path d="M34.8699 84.9747C34.8699 83.9827 35.2059 83.1507 35.8779 82.4787C36.5499 81.8067 37.3819 81.4707 38.3739 81.4707C39.3659 81.4707 40.1979 81.8067 40.8699 82.4787C41.5419 83.1507 41.8779 83.9827 41.8779 84.9747C41.8779 85.9347 41.5419 86.7507 40.8699 87.4227C40.1979 88.0947 39.3659 88.4307 38.3739 88.4307C37.3819 88.4307 36.5499 88.0947 35.8779 87.4227C35.2059 86.7507 34.8699 85.9347 34.8699 84.9747Z" fill="#98BEE1"/>
<path d="M-0.994691 84.9747C-0.994691 83.9827 -0.658691 83.1507 0.0133086 82.4787C0.685309 81.8067 1.51731 81.4707 2.50931 81.4707C3.50131 81.4707 4.33331 81.8067 5.00531 82.4787C5.67731 83.1507 6.01331 83.9827 6.01331 84.9747C6.01331 85.9347 5.67731 86.7507 5.00531 87.4227C4.33331 88.0947 3.50131 88.4307 2.50931 88.4307C1.51731 88.4307 0.685309 88.0947 0.0133086 87.4227C-0.658691 86.7507 -0.994691 85.9347 -0.994691 84.9747Z" fill="#98BEE1"/>
<path d="M0.713316 139.477C0.713316 138.485 1.04932 137.653 1.72132 136.981C2.39332 136.309 3.22532 135.973 4.21732 135.973C5.20932 135.973 6.04132 136.309 6.71332 136.981C7.38532 137.653 7.72132 138.485 7.72132 139.477C7.72132 140.437 7.38532 141.253 6.71332 141.925C6.04132 142.597 5.20932 142.933 4.21732 142.933C3.22532 142.933 2.39332 142.597 1.72132 141.925C1.04932 141.253 0.713316 140.437 0.713316 139.477Z" fill="#98BEE1"/>
<path d="M105.664 84.9747C105.664 83.9827 106 83.1507 106.672 82.4787C107.344 81.8067 108.176 81.4707 109.168 81.4707C110.16 81.4707 110.992 81.8067 111.664 82.4787C112.336 83.1507 112.672 83.9827 112.672 84.9747C112.672 85.9347 112.336 86.7507 111.664 87.4227C110.992 88.0947 110.16 88.4307 109.168 88.4307C108.176 88.4307 107.344 88.0947 106.672 87.4227C106 86.7507 105.664 85.9347 105.664 84.9747Z" fill="#98BEE1"/>
<path d="M-0.994691 167.393C-0.994691 166.401 -0.658691 165.569 0.0133086 164.897C0.685309 164.225 1.51731 163.889 2.50931 163.889C3.50131 163.889 4.33331 164.225 5.00531 164.897C5.67731 165.569 6.01331 166.401 6.01331 167.393C6.01331 168.353 5.67731 169.169 5.00531 169.841C4.33331 170.513 3.50131 170.849 2.50931 170.849C1.51731 170.849 0.685309 170.513 0.0133086 169.841C-0.658691 169.169 -0.994691 168.353 -0.994691 167.393Z" fill="#98BEE1"/>
<path d="M-0.994691 193.979C-0.994691 192.987 -0.658691 192.155 0.0133086 191.483C0.685309 190.811 1.51731 190.475 2.50931 190.475C3.50131 190.475 4.33331 190.811 5.00531 191.483C5.67731 192.155 6.01331 192.987 6.01331 193.979C6.01331 194.939 5.67731 195.755 5.00531 196.427C4.33331 197.099 3.50131 197.435 2.50931 197.435C1.51731 197.435 0.685309 197.099 0.0133086 196.427C-0.658691 195.755 -0.994691 194.939 -0.994691 193.979Z" fill="#98BEE1"/>
<path d="M-0.994691 220.565C-0.994691 219.573 -0.658691 218.741 0.0133086 218.069C0.685309 217.397 1.51731 217.061 2.50931 217.061C3.50131 217.061 4.33331 217.397 5.00531 218.069C5.67731 218.741 6.01331 219.573 6.01331 220.565C6.01331 221.525 5.67731 222.341 5.00531 223.013C4.33331 223.685 3.50131 224.021 2.50931 224.021C1.51731 224.021 0.685309 223.685 0.0133086 223.013C-0.658691 222.341 -0.994691 221.525 -0.994691 220.565Z" fill="#98BEE1"/>
<path d="M33.9753 139.719C33.9753 138.727 34.3113 137.895 34.9833 137.223C35.6553 136.551 36.4873 136.215 37.4793 136.215C38.4713 136.215 39.3033 136.551 39.9753 137.223C40.6473 137.895 40.9833 138.727 40.9833 139.719C40.9833 140.679 40.6473 141.495 39.9753 142.167C39.3033 142.839 38.4713 143.175 37.4793 143.175C36.4873 143.175 35.6553 142.839 34.9833 142.167C34.3113 141.495 33.9753 140.679 33.9753 139.719Z" fill="#98BEE1"/>
<path d="M33.9753 167.393C33.9753 166.401 34.3113 165.569 34.9833 164.897C35.6553 164.225 36.4873 163.889 37.4793 163.889C38.4713 163.889 39.3033 164.225 39.9753 164.897C40.6473 165.569 40.9833 166.401 40.9833 167.393C40.9833 168.353 40.6473 169.169 39.9753 169.841C39.3033 170.513 38.4713 170.849 37.4793 170.849C36.4873 170.849 35.6553 170.513 34.9833 169.841C34.3113 169.169 33.9753 168.353 33.9753 167.393Z" fill="#98BEE1"/>
<path d="M33.9753 167.393C33.9753 166.401 34.3113 165.569 34.9833 164.897C35.6553 164.225 36.4873 163.889 37.4793 163.889C38.4713 163.889 39.3033 164.225 39.9753 164.897C40.6473 165.569 40.9833 166.401 40.9833 167.393C40.9833 168.353 40.6473 169.169 39.9753 169.841C39.3033 170.513 38.4713 170.849 37.4793 170.849C36.4873 170.849 35.6553 170.513 34.9833 169.841C34.3113 169.169 33.9753 168.353 33.9753 167.393Z" fill="#98BEE1"/>
<path d="M33.9753 193.979C33.9753 192.987 34.3113 192.155 34.9833 191.483C35.6553 190.811 36.4873 190.475 37.4793 190.475C38.4713 190.475 39.3033 190.811 39.9753 191.483C40.6473 192.155 40.9833 192.987 40.9833 193.979C40.9833 194.939 40.6473 195.755 39.9753 196.427C39.3033 197.099 38.4713 197.435 37.4793 197.435C36.4873 197.435 35.6553 197.099 34.9833 196.427C34.3113 195.755 33.9753 194.939 33.9753 193.979Z" fill="#98BEE1"/>
<path d="M33.9753 220.565C33.9753 219.573 34.3113 218.741 34.9833 218.069C35.6553 217.397 36.4873 217.061 37.4793 217.061C38.4713 217.061 39.3033 217.397 39.9753 218.069C40.6473 218.741 40.9833 219.573 40.9833 220.565C40.9833 221.525 40.6473 222.341 39.9753 223.013C39.3033 223.685 38.4713 224.021 37.4793 224.021C36.4873 224.021 35.6553 223.685 34.9833 223.013C34.3113 222.341 33.9753 221.525 33.9753 220.565Z" fill="#98BEE1"/>
<path d="M70.694 139.719C70.694 138.727 71.03 137.895 71.702 137.223C72.374 136.551 73.206 136.215 74.198 136.215C75.19 136.215 76.022 136.551 76.694 137.223C77.366 137.895 77.702 138.727 77.702 139.719C77.702 140.679 77.366 141.495 76.694 142.167C76.022 142.839 75.19 143.175 74.198 143.175C73.206 143.175 72.374 142.839 71.702 142.167C71.03 141.495 70.694 140.679 70.694 139.719Z" fill="#98BEE1"/>
<path d="M70.694 167.393C70.694 166.401 71.03 165.569 71.702 164.897C72.374 164.225 73.206 163.889 74.198 163.889C75.19 163.889 76.022 164.225 76.694 164.897C77.366 165.569 77.702 166.401 77.702 167.393C77.702 168.353 77.366 169.169 76.694 169.841C76.022 170.513 75.19 170.849 74.198 170.849C73.206 170.849 72.374 170.513 71.702 169.841C71.03 169.169 70.694 168.353 70.694 167.393Z" fill="#98BEE1"/>
<path d="M70.694 167.393C70.694 166.401 71.03 165.569 71.702 164.897C72.374 164.225 73.206 163.889 74.198 163.889C75.19 163.889 76.022 164.225 76.694 164.897C77.366 165.569 77.702 166.401 77.702 167.393C77.702 168.353 77.366 169.169 76.694 169.841C76.022 170.513 75.19 170.849 74.198 170.849C73.206 170.849 72.374 170.513 71.702 169.841C71.03 169.169 70.694 168.353 70.694 167.393Z" fill="#98BEE1"/>
<path d="M70.694 193.979C70.694 192.987 71.03 192.155 71.702 191.483C72.374 190.811 73.206 190.475 74.198 190.475C75.19 190.475 76.022 190.811 76.694 191.483C77.366 192.155 77.702 192.987 77.702 193.979C77.702 194.939 77.366 195.755 76.694 196.427C76.022 197.099 75.19 197.435 74.198 197.435C73.206 197.435 72.374 197.099 71.702 196.427C71.03 195.755 70.694 194.939 70.694 193.979Z" fill="#98BEE1"/>
<path d="M70.694 220.565C70.694 219.573 71.03 218.741 71.702 218.069C72.374 217.397 73.206 217.061 74.198 217.061C75.19 217.061 76.022 217.397 76.694 218.069C77.366 218.741 77.702 219.573 77.702 220.565C77.702 221.525 77.366 222.341 76.694 223.013C76.022 223.685 75.19 224.021 74.198 224.021C73.206 224.021 72.374 223.685 71.702 223.013C71.03 222.341 70.694 221.525 70.694 220.565Z" fill="#98BEE1"/>
<path d="M104.891 139.477C104.891 138.485 105.227 137.653 105.899 136.981C106.571 136.309 107.403 135.973 108.395 135.973C109.387 135.973 110.219 136.309 110.891 136.981C111.563 137.653 111.899 138.485 111.899 139.477C111.899 140.437 111.563 141.253 110.891 141.925C110.219 142.597 109.387 142.933 108.395 142.933C107.403 142.933 106.571 142.597 105.899 141.925C105.227 141.253 104.891 140.437 104.891 139.477Z" fill="#98BEE1"/>
<path d="M105.664 167.393C105.664 166.401 106 165.569 106.672 164.897C107.344 164.225 108.176 163.889 109.168 163.889C110.16 163.889 110.992 164.225 111.664 164.897C112.336 165.569 112.672 166.401 112.672 167.393C112.672 168.353 112.336 169.169 111.664 169.841C110.992 170.513 110.16 170.849 109.168 170.849C108.176 170.849 107.344 170.513 106.672 169.841C106 169.169 105.664 168.353 105.664 167.393Z" fill="#98BEE1"/>
<path d="M105.664 167.393C105.664 166.401 106 165.569 106.672 164.897C107.344 164.225 108.176 163.889 109.168 163.889C110.16 163.889 110.992 164.225 111.664 164.897C112.336 165.569 112.672 166.401 112.672 167.393C112.672 168.353 112.336 169.169 111.664 169.841C110.992 170.513 110.16 170.849 109.168 170.849C108.176 170.849 107.344 170.513 106.672 169.841C106 169.169 105.664 168.353 105.664 167.393Z" fill="#98BEE1"/>
<path d="M105.664 193.979C105.664 192.987 106 192.155 106.672 191.483C107.344 190.811 108.176 190.475 109.168 190.475C110.16 190.475 110.992 190.811 111.664 191.483C112.336 192.155 112.672 192.987 112.672 193.979C112.672 194.939 112.336 195.755 111.664 196.427C110.992 197.099 110.16 197.435 109.168 197.435C108.176 197.435 107.344 197.099 106.672 196.427C106 195.755 105.664 194.939 105.664 193.979Z" fill="#98BEE1"/>
<path d="M105.664 220.565C105.664 219.573 106 218.741 106.672 218.069C107.344 217.397 108.176 217.061 109.168 217.061C110.16 217.061 110.992 217.397 111.664 218.069C112.336 218.741 112.672 219.573 112.672 220.565C112.672 221.525 112.336 222.341 111.664 223.013C110.992 223.685 110.16 224.021 109.168 224.021C108.176 224.021 107.344 223.685 106.672 223.013C106 222.341 105.664 221.525 105.664 220.565Z" fill="#98BEE1"/>
</svg>
