<svg width="168" height="491" viewBox="0 0 168 491" fill="none" xmlns="http://www.w3.org/2000/svg">
<path d="M116.839 94.6596C116.839 94.6596 127.526 94.7377 131.045 113.064C134.59 131.39 137.718 155.781 141.889 164.944C146.06 174.107 153.515 190.507 156.982 207.115C160.449 223.723 161.882 234.214 162.691 237.676C163.499 241.138 166.861 255.664 167.148 260.011C167.409 264.358 166.001 274.641 165.61 276.437C165.193 278.207 161.83 287.448 161.439 287.839C161.022 288.255 159.145 285.912 159.302 284.481C159.458 283.049 160.683 275.422 160.683 275.422L158.937 263.968C158.937 263.968 157.712 273.756 156.174 274.459C154.636 275.161 153.176 274.719 152.811 274.511C152.446 274.302 153.072 265.738 151.325 258.866C149.579 251.993 153.202 245.329 151.169 239.212C149.136 233.095 132.609 198.967 129.559 187.878C126.509 176.763 115.692 147.243 112.433 139.382C109.149 131.546 110.348 94.2692 116.839 94.6596Z" fill="#FFEDE5"/>
<path d="M116.786 132.379C115.822 129.021 113.554 129.151 110.947 130.765C111.234 134.566 111.729 137.69 112.433 139.382C113.293 141.412 114.649 144.926 116.239 149.195C117.308 145.707 118.715 139.147 116.786 132.379Z" fill="#DD825C"/>
<path d="M131.332 174.446C131.228 174.446 131.123 174.394 131.097 174.29C131.045 174.16 131.123 174.004 131.254 173.952L138.057 171.479C138.188 171.427 138.344 171.505 138.396 171.635C138.448 171.765 138.37 171.921 138.24 171.973L131.436 174.446C131.384 174.446 131.358 174.446 131.332 174.446Z" fill="#472938"/>
<path d="M52.3225 95.1545C52.3225 95.1545 39.7582 97.2891 36.1609 113.09C32.0163 131.286 29.4878 155.808 25.317 164.971C21.1463 174.134 13.6911 190.534 10.2242 207.142C6.75727 223.75 5.29752 234.214 4.48944 237.676C3.68136 241.139 0.318704 255.664 0.0319662 260.011C-0.228705 264.359 1.17892 274.641 1.56992 276.437C1.96093 278.233 5.34965 287.448 5.74066 287.839C6.15773 288.255 8.03456 285.913 7.87816 284.481C7.72175 283.049 6.4966 275.422 6.4966 275.422L8.2431 263.968C8.2431 263.968 9.46825 273.756 11.0062 274.459C12.5442 275.162 14.0039 274.719 14.3689 274.511C14.7338 274.303 14.1082 265.738 15.8547 258.866C17.6012 251.994 13.9779 245.33 16.0111 239.212C18.0443 233.095 34.5708 198.968 37.6468 187.878C40.6966 176.763 51.5144 147.243 54.7728 139.382C58.0573 131.546 58.8132 94.738 52.3225 95.1545Z" fill="#FFEDE5"/>
<path d="M47.8129 130.037C49.2205 126.835 53.6519 129.126 56.2586 130.74C55.9719 134.54 55.4766 137.664 54.7728 139.356C53.9126 141.386 52.5571 144.901 50.967 149.17C48.9338 147.165 46.1707 133.785 47.8129 130.037Z" fill="#DD825C"/>
<path d="M35.9263 174.446C35.8742 174.446 35.8481 174.446 35.796 174.42L30.1915 171.401C30.0612 171.323 30.0091 171.192 30.0873 171.062C30.1655 170.932 30.2958 170.88 30.4262 170.958L36.0306 173.978C36.1609 174.056 36.2131 174.186 36.1349 174.316C36.1088 174.394 36.0045 174.446 35.9263 174.446Z" fill="#472938"/>
<path d="M124.633 490.363H156.591C157.373 490.363 157.998 489.738 157.998 488.957C157.998 487.994 157.946 486.64 157.816 485.313H124.059C123.877 486.667 123.694 487.916 123.512 489.061C123.407 489.738 123.955 490.363 124.633 490.363Z" fill="#3B2645"/>
<path d="M156.356 480.393C154.636 479.3 149.188 474.666 147.415 462.692C147.415 462.692 147.415 462.692 147.415 462.666C147.415 462.64 147.415 462.588 147.389 462.561C147.259 461.807 146.32 458.188 139.465 458.214C131.827 458.266 130.732 466.831 130.289 466.727C129.846 466.622 128.751 461.468 126.822 461.416C126.014 469.408 124.998 478.519 124.085 485.313H157.842C157.607 483.126 157.216 480.914 156.356 480.393Z" fill="#AB8DA8"/>
<path d="M130.263 466.727C130.732 466.831 131.801 458.266 139.439 458.214C146.294 458.162 147.233 461.781 147.363 462.562C147.259 461.859 147.155 461.13 147.076 460.349C146.477 454.31 146.659 443.09 146.659 443.09L128.491 443.559C128.491 443.559 127.761 451.628 126.77 461.39C128.751 461.442 129.82 466.622 130.263 466.727Z" fill="#FFEDE5"/>
<path d="M156.356 480.393C156.356 480.471 156.33 480.523 156.33 480.523C156.33 480.523 149.527 480.523 140.716 480.523C131.905 480.523 130.237 466.726 130.237 466.726C129.768 466.622 128.699 461.468 126.77 461.416C125.962 469.408 124.945 478.519 124.033 485.313H157.79C157.607 483.126 157.216 480.966 156.356 480.393Z" fill="#AB8DA8"/>
<path d="M140.742 480.523C149.553 480.523 156.356 480.523 156.356 480.523C156.356 480.523 156.356 480.471 156.382 480.393C156.382 480.393 156.382 480.393 156.356 480.367C154.636 479.273 149.188 474.64 147.415 462.665C147.415 462.665 147.415 462.665 147.415 462.639C147.415 462.613 147.415 462.561 147.389 462.535C147.259 461.78 146.32 458.162 139.465 458.188C131.827 458.24 130.732 466.804 130.289 466.7C130.263 466.726 131.931 480.523 140.742 480.523Z" fill="#543753"/>
<path d="M47.057 490.363H15.0987C14.3167 490.363 13.6911 489.738 13.6911 488.957C13.6911 487.994 13.7432 486.64 13.8736 485.313H47.6304C47.8129 486.667 47.9954 487.916 48.1778 489.061C48.2821 489.738 47.7608 490.363 47.057 490.363Z" fill="#3B2645"/>
<path d="M15.3334 480.393C17.0538 479.3 22.5018 474.666 24.2744 462.692C24.2744 462.692 24.2744 462.692 24.2744 462.666C24.2744 462.64 24.2744 462.588 24.3004 462.561C24.4308 461.807 25.3692 458.188 32.2248 458.214C39.8625 458.266 40.9573 466.831 41.4004 466.727C41.8436 466.622 42.9384 461.468 44.8673 461.416C45.6754 469.408 46.692 478.519 47.6044 485.313H13.8736C14.0821 483.126 14.4992 480.914 15.3334 480.393Z" fill="#AB8DA8"/>
<path d="M41.4265 466.727C40.9573 466.831 39.8885 458.266 32.2509 458.214C25.3952 458.162 24.4568 461.781 24.3265 462.562C24.4307 461.859 24.535 461.13 24.6132 460.349C25.2128 454.31 25.0303 443.09 25.0303 443.09L43.199 443.559C43.199 443.559 43.9289 451.628 44.9195 461.39C42.9384 461.442 41.8696 466.622 41.4265 466.727Z" fill="#FFEDE5"/>
<path d="M15.3334 480.393C15.3334 480.471 15.3594 480.523 15.3594 480.523C15.3594 480.523 22.1629 480.523 30.9736 480.523C39.7843 480.523 41.4526 466.726 41.4526 466.726C41.9218 466.622 42.9905 461.468 44.9195 461.416C45.7276 469.408 46.7442 478.519 47.6565 485.313H13.8736C14.0821 483.126 14.4731 480.966 15.3334 480.393Z" fill="#AB8DA8"/>
<path d="M30.9475 480.523C22.1368 480.523 15.3333 480.523 15.3333 480.523C15.3333 480.523 15.3333 480.471 15.3073 480.393C15.3073 480.393 15.3073 480.393 15.3333 480.367C17.0537 479.273 22.5018 474.64 24.2743 462.665C24.2743 462.665 24.2743 462.665 24.2743 462.639C24.2743 462.613 24.2743 462.561 24.3004 462.535C24.4307 461.78 25.3691 458.162 32.2248 458.188C39.8624 458.24 40.9573 466.804 41.4004 466.7C41.4265 466.726 39.7582 480.523 30.9475 480.523Z" fill="#543753"/>
<path d="M141.602 354.011C139.36 343.832 139.569 314.885 137.327 274.953C135.789 247.672 128.36 226.665 123.798 216.096C82.0129 229.841 54.9814 221.433 45.3887 217.215C27.2199 257.668 31.4949 304.811 32.0684 321.992C32.6679 340.318 28.3929 357.837 24.0137 382.307C19.6344 406.75 24.0137 444.027 24.0137 444.027C32.4855 447.073 43.4858 443.611 43.4858 443.611C43.0687 424.66 48.1778 406.724 52.8699 384.519C57.562 362.289 54.6946 347.659 60.8204 331.155C66.9461 314.651 82.1172 259.438 82.1172 259.438H88.6339C91.0843 283.075 102.241 309.158 110.687 332.509C119.132 355.859 115.301 369.317 121.687 397.301C128.073 425.285 127.396 443.585 127.396 443.585C134.955 446.839 147.572 443.064 147.572 443.064C147.572 443.064 147.91 422.655 148.119 399.826C148.328 377.022 143.844 364.189 141.602 354.011Z" fill="#AB8DA8"/>
<path d="M123.772 216.122C121.661 211.228 120.175 208.547 120.175 208.547L49.3248 209.224C47.8911 211.853 46.5878 214.534 45.3626 217.241C54.9814 221.459 81.9868 229.867 123.772 216.122Z" fill="#3B2645"/>
<path d="M96.8711 72.5854L97.966 88.3344C98.1484 90.8073 100.051 92.7857 102.502 93.0461L116.865 94.66C116.865 94.66 122.104 132.484 113.267 148.102C104.431 163.721 109.149 182.672 120.175 208.547C120.175 208.547 74.8966 218.726 49.3248 209.224C49.3248 209.224 60.6118 183.297 57.7445 164.554C54.8771 145.812 47.3958 143.078 47.8129 130.063C48.23 117.047 52.2964 95.1546 52.2964 95.1546L66.9983 92.3692C68.4841 92.0829 69.605 90.9115 69.8135 89.4277L71.8989 74.9022L96.8711 72.5854Z" fill="#FFEDE5"/>
<path d="M71.9249 74.9022C71.9249 74.9022 79.1455 94.66 97.5749 82.8417L96.8711 72.5854L71.9249 74.9022Z" fill="#DD825C"/>
<path d="M113.241 148.103C114.727 145.473 115.796 142.246 116.578 138.653C116.891 136.831 117.308 132.328 115.587 124.961C113.293 115.225 113.893 94.3217 113.893 94.3217L104.874 93.3065C104.874 93.3065 103.518 124.336 83.2641 124.336C63.01 124.336 63.5053 93.0201 63.5053 93.0201L55.7112 94.5039C55.7112 94.5039 57.0928 126.418 47.839 130.037C47.4219 143.079 54.9031 145.786 57.7705 164.528C57.953 165.752 58.0833 167.001 58.1615 168.277C58.1615 168.277 76.8516 176.347 108.68 167.678C108.471 160.546 109.853 154.09 113.241 148.103Z" fill="#AB8DA8"/>
<path d="M58.1354 168.303C58.1354 168.303 76.8255 176.372 108.653 167.704C108.601 165.934 108.653 164.19 108.81 162.498C86.2097 168.615 64.9911 165.101 57.562 163.487C57.6141 163.825 57.6662 164.19 57.7444 164.554C57.9269 165.777 58.0572 167.027 58.1354 168.303Z" fill="#3B2645"/>
<path d="M72.0814 155.495C67.65 155.495 64.9129 154.298 64.7826 154.246C64.6522 154.194 64.6001 154.038 64.6522 153.908C64.7044 153.777 64.8608 153.725 64.9911 153.777C65.0172 153.803 68.5362 155.313 73.9061 154.923C75.8871 154.767 77.399 154.454 78.8849 154.142C81.4655 153.595 83.8897 153.075 87.9041 153.777C92.935 154.662 99.1911 155.521 103.023 154.22C103.153 154.168 103.31 154.246 103.336 154.376C103.388 154.506 103.31 154.662 103.179 154.688C99.2693 156.016 92.9089 155.157 87.8259 154.246C83.9158 153.569 81.648 154.038 79.0152 154.61C77.5033 154.923 75.9654 155.261 73.9582 155.417C73.3065 155.469 72.6809 155.495 72.0814 155.495Z" fill="#472938"/>
<path d="M83.6552 210.291C84.1878 210.291 84.6196 209.581 84.6196 208.704C84.6196 207.827 84.1878 207.116 83.6552 207.116C83.1225 207.116 82.6907 207.827 82.6907 208.704C82.6907 209.581 83.1225 210.291 83.6552 210.291Z" fill="#DD825C"/>
<path d="M108.205 60.4142C109.519 56.7762 109.003 53.2576 107.053 52.5552C105.103 51.8527 102.457 54.2325 101.143 57.8705C99.829 61.5085 100.345 65.0271 102.295 65.7296C104.245 66.432 106.891 64.0523 108.205 60.4142Z" fill="#FFEDE5"/>
<path d="M65.4216 65.7387C67.3717 65.0362 67.8874 61.5176 66.5735 57.8796C65.2595 54.2416 62.6134 51.8618 60.6632 52.5642C58.7131 53.2667 58.1973 56.7853 59.5113 60.4233C60.8253 64.0613 63.4714 66.4411 65.4216 65.7387Z" fill="#FFEDE5"/>
<path d="M64.2351 61.5998C64.1569 61.5998 64.0787 61.5738 64.0266 61.4957L61.472 57.8773C61.3938 57.7732 61.4199 57.591 61.5242 57.5129C61.6284 57.4348 61.7848 57.4608 61.8891 57.565L64.4437 61.1833C64.5219 61.2875 64.4958 61.4697 64.3916 61.5478C64.3394 61.5998 64.2873 61.5998 64.2351 61.5998Z" fill="#472938"/>
<path d="M103.727 61.1053C103.675 61.1053 103.596 61.0792 103.57 61.0532C103.466 60.9491 103.466 60.7929 103.544 60.6888L106.255 57.591C106.36 57.4869 106.516 57.4869 106.62 57.565C106.724 57.6691 106.724 57.8253 106.646 57.9294L103.935 61.0272C103.857 61.0792 103.779 61.1053 103.727 61.1053Z" fill="#472938"/>
<path d="M103.727 51.0832C103.727 68.8887 95.6199 84.091 83.9419 84.091C72.2638 84.091 62.8015 67.6652 62.8015 49.8597C62.8015 32.0542 72.2377 19.6112 83.9419 19.6112C95.646 19.6112 103.727 33.2777 103.727 51.0832Z" fill="#FFEDE5"/>
<path d="M84.9125 27.9773C94.106 27.0266 100.949 20.3784 100.198 13.128C99.4458 5.8776 91.3835 0.770679 82.19 1.72136C72.9965 2.67203 66.1531 9.3203 66.9049 16.5707C67.6567 23.8211 75.719 28.928 84.9125 27.9773Z" fill="#3B2645"/>
<g opacity="0.5">
<g opacity="0.5">
<path opacity="0.5" d="M84.9063 27.9672C93.743 27.0561 100.39 20.8866 100.234 13.9883C97.5488 8.91218 90.8496 5.71031 83.4205 6.49126C74.5837 7.40236 67.9366 13.5718 68.093 20.4701C70.804 25.5462 77.4772 28.7481 84.9063 27.9672Z" fill="#3B2645"/>
</g>
</g>
<path d="M103.648 53.7643C103.648 53.7643 95.7502 44.7574 96.7668 34.475C96.7668 34.475 89.8851 46.84 62.8014 53.1135L60.4553 52.645C60.4553 52.645 51.8532 12.6607 83.9418 12.5566C103.257 12.4785 104.665 24.7913 104.665 24.7913C104.665 24.7913 115.327 27.9672 107.037 52.5669L103.648 53.7643Z" fill="#3B2645"/>
<path d="M83.3423 66.8841C82.0128 66.8841 80.3185 65.8168 80.0839 65.3743C79.8232 64.8536 80.5531 61.9121 81.7782 58.6842C83.0816 55.2481 82.3517 53.2436 82.3517 53.2176C82.2996 53.0875 82.3778 52.9313 82.5081 52.8792C82.6384 52.8271 82.7948 52.9052 82.847 53.0354C82.873 53.1135 83.6551 55.196 82.2735 58.8404C80.8398 62.641 80.4749 64.8536 80.5531 65.114C80.6834 65.3743 82.3256 66.4416 83.4987 66.3374C84.6977 66.2333 86.4964 65.2181 86.4964 65.1921C86.6267 65.114 86.7831 65.166 86.8352 65.2962C86.9134 65.4263 86.8613 65.5825 86.731 65.6346C86.6528 65.6867 84.8281 66.7279 83.5247 66.832C83.4726 66.8841 83.3944 66.8841 83.3423 66.8841Z" fill="#472938"/>
<path d="M83.6551 72.8454C80.0839 72.8454 77.6597 70.4245 77.5554 70.3203C77.4512 70.2162 77.4512 70.06 77.5554 69.9559C77.6597 69.8518 77.8161 69.8518 77.9204 69.9559C77.9464 69.9819 80.3185 72.3247 83.6551 72.3247C86.9917 72.3247 89.3638 69.9819 89.3899 69.9559C89.4941 69.8518 89.6505 69.8518 89.7548 69.9559C89.8591 70.06 89.8591 70.2162 89.7548 70.3203C89.6505 70.4245 87.2263 72.8454 83.6551 72.8454Z" fill="#472938"/>
<path d="M93.2999 56.6279C92.4136 56.6019 91.7359 55.847 91.762 54.9619L91.8141 53.8165C91.8402 52.9315 92.5961 52.2546 93.4824 52.2807C94.3687 52.3067 95.0464 53.0616 95.0204 53.9467L94.9682 55.0921C94.9421 55.9771 94.1862 56.68 93.2999 56.6279Z" fill="#472938"/>
<path d="M74.7401 56.6281C73.8538 56.6801 73.0979 55.9773 73.0718 55.0922L73.0197 53.9468C72.9676 53.0618 73.6714 52.3068 74.5576 52.2808C75.4439 52.2287 76.1998 52.9316 76.2259 53.8167L76.2781 54.962C76.3041 55.8471 75.6264 56.602 74.7401 56.6281Z" fill="#472938"/>
<path d="M98.2526 48.2717C98.2526 48.2717 96.2455 46.4755 93.1956 47.0222C90.1458 47.5689 89.4681 47.725 89.2595 47.4908C89.051 47.2825 88.7903 45.5644 92.3094 45.0178C95.8284 44.4711 98.0702 46.892 98.2526 48.2717Z" fill="#472938"/>
</svg>
