<svg width="361" height="371" viewBox="0 0 361 371" fill="none" xmlns="http://www.w3.org/2000/svg">
<path d="M172.24 357.3C267.178 357.3 344.513 324.932 359.771 234.632C375.029 144.332 243.082 186.384 245.535 104.515C247.988 22.68 218.915 -24.8907 139.307 13.5044C59.6987 51.8996 71.7464 132.753 59.9873 170.268C37.1184 243.063 -88.9488 357.3 172.24 357.3Z" fill="#98BFFD"/>
<path d="M50.2107 178.058C58.5621 156.296 57.4773 135.999 47.7877 132.722C38.0981 129.446 23.473 144.431 15.1216 166.193C6.77015 187.955 7.85497 208.252 17.5446 211.528C27.2342 214.805 41.8593 199.819 50.2107 178.058Z" fill="#98BFFD"/>
<path d="M327.475 134.693C339.895 124.504 337.997 103.391 323.235 87.5359C308.473 71.6812 286.437 67.0885 274.016 77.2779C261.596 87.4673 263.494 108.58 278.256 124.435C293.018 140.29 315.054 144.882 327.475 134.693Z" fill="#98BFFD"/>
<path d="M230.638 53.9648C230.638 53.9648 218.626 53.8971 216.354 69.7089C214.081 85.5206 217.328 92.5293 209.14 99.6733C200.952 106.817 214.37 110.813 225.372 104.041C236.409 97.2694 230.638 53.9648 230.638 53.9648Z" fill="#3B2645"/>
<path d="M230.638 53.9648C230.638 53.9648 219.6 59.5853 219.384 75.397C219.203 89.3805 223.027 100.215 217.183 107.19C219.817 106.716 222.666 105.7 225.372 104.041C236.409 97.2694 230.638 53.9648 230.638 53.9648Z" fill="#3B2645"/>
<path d="M244.922 90.1592L241.062 105.158L216.354 103.364C216.354 103.364 222.63 94.1545 225.949 78.2073L244.922 90.1592Z" fill="#FFEDE5"/>
<path d="M230.277 85.0127L242.686 98.9284L244.922 90.1591L230.277 85.0127Z" fill="#DF845C"/>
<path d="M258.088 58.5358C258.088 58.5358 262.849 64.7995 260.757 71.2664C258.665 77.7333 258.773 78.8506 258.412 81.2546C258.052 83.6246 251.92 94.4931 248.998 94.8994C246.076 95.3057 228.329 88.7711 224.831 79.5617C221.332 70.3522 244.417 44.7555 258.088 58.5358Z" fill="#FFEDE5"/>
<path d="M224.939 82.6089L229.772 75.3971L231.973 76.2097C231.973 76.2097 233.812 75.7357 234.57 69.2011C234.57 69.2011 240.088 67.0003 241.135 61.9893C241.135 61.9893 259.603 50.4776 261.298 68.2192C261.298 68.2192 264.076 60.0933 255.743 54.5744C247.411 49.0555 236.914 47.4642 230.277 52.1027C223.64 56.7413 213.071 72.8578 224.939 82.6089Z" fill="#3B2645"/>
<path d="M230.126 80.048C232.175 79.1279 232.581 75.9206 231.033 72.8843C229.486 69.8479 226.57 68.1323 224.521 69.0524C222.473 69.9724 222.067 73.1797 223.614 76.2161C225.162 79.2524 228.077 80.9681 230.126 80.048Z" fill="#FFEDE5"/>
<path d="M229.376 77.2255C229.267 77.2255 229.159 77.1917 229.087 77.0901L226.778 74.1106C226.67 73.9752 226.706 73.7381 226.851 73.6366C226.995 73.535 227.247 73.5689 227.356 73.7043L229.664 76.6838C229.772 76.8192 229.736 77.0562 229.592 77.1578C229.52 77.1917 229.448 77.2255 229.376 77.2255Z" fill="#472938"/>
<path d="M244.778 84.0309C244.778 84.0309 247.699 85.9269 252.352 86.0962C252.352 86.0962 247.303 87.0781 244.778 84.0309Z" fill="#472938"/>
<path d="M252.389 82.4734C251.595 82.4734 250.838 82.3719 250.224 82.0671C250.044 81.9656 249.972 81.7624 250.08 81.627C250.188 81.4577 250.405 81.39 250.549 81.4915C252.064 82.2026 254.986 81.5931 255.347 81.1868C255.383 80.8482 254.842 79.3246 254.481 78.3427C254.156 77.4624 253.868 76.6498 253.759 76.0742C253.363 74.4829 255.094 72.5191 255.166 72.4176C255.31 72.2821 255.527 72.2483 255.671 72.3837C255.815 72.5191 255.851 72.7223 255.707 72.8577C255.274 73.3656 254.192 74.8892 254.445 75.9388C254.589 76.4805 254.878 77.327 255.166 78.1396C255.888 80.1372 256.176 81.0514 255.996 81.4577C255.888 81.6947 255.635 81.864 255.13 82.0671C254.553 82.2703 253.471 82.4734 252.389 82.4734Z" fill="#472938"/>
<path d="M260.324 72.7562C260.324 72.7562 261.37 71.9098 260.396 71.368C259.423 70.8263 257.727 70.9617 257.511 71.4696C257.294 71.9775 257.222 72.2822 257.944 72.3161C258.701 72.3499 260.216 71.9775 260.324 72.7562Z" fill="#472938"/>
<path d="M241.135 69.9461C241.135 69.9461 243.984 68.5579 246.04 69.1335C248.096 69.7091 248.565 70.5217 249.575 70.2847C250.585 70.0138 249.683 68.4902 247.447 67.9146C245.211 67.339 242.108 68.2193 241.135 69.9461Z" fill="#472938"/>
<path d="M244.958 74.7201C244.525 74.6523 244.237 74.2799 244.273 73.8736L244.381 73.298C244.453 72.8917 244.85 72.6208 245.283 72.6547C245.716 72.7224 246.004 73.0949 245.968 73.5012L245.86 74.0768C245.788 74.483 245.391 74.7878 244.958 74.7201Z" fill="#472938"/>
<path d="M256.753 76.0742C256.392 76.0404 256.176 75.7356 256.212 75.397L256.284 74.923C256.32 74.5845 256.645 74.3813 257.006 74.4152C257.366 74.449 257.583 74.7537 257.547 75.0923L257.475 75.5663C257.439 75.9049 257.114 76.1081 256.753 76.0742Z" fill="#472938"/>
<path d="M275.654 351.883C277.205 353.102 279.189 354.693 280.776 352.153C280.596 350.528 280.812 345.45 280.812 345.45L267.178 346.161L267.935 351.476C267.935 351.442 274.103 350.664 275.654 351.883Z" fill="#FFEDE5"/>
<path d="M279.73 366.137C281.931 365.392 286.692 360.889 287.666 359.941C287.341 358.451 286.584 356.961 285.574 356.792C284.095 356.589 280.957 353.745 280.776 352.12C279.153 354.693 277.205 353.101 275.654 351.849C274.103 350.63 267.935 351.409 267.935 351.409C267.935 351.409 265.915 361.126 265.699 366.171C268.765 366.374 277.71 366.848 279.73 366.137Z" fill="#3B2645"/>
<path d="M266.096 369.083C267.647 370.335 278.756 369.963 279.911 369.658C281.065 369.353 286.692 364.139 287.522 362.886C287.882 362.345 287.918 361.126 287.63 359.941C286.656 360.889 281.895 365.392 279.694 366.137C277.674 366.814 268.693 366.374 265.663 366.205C265.663 367.728 265.735 368.812 266.096 369.083Z" fill="#E5E5E5"/>
<path d="M190.022 351.747C193.521 352.187 194.387 354.117 195.469 354.016C196.551 353.914 199.04 351.883 199.04 351.883C199.04 350.393 200.627 345.45 200.627 345.45L186.235 345.89L184.684 352.594C184.72 352.594 186.56 351.307 190.022 351.747Z" fill="#FFEDE5"/>
<path d="M199.834 361.905C201.24 361.397 202.503 360.279 203.296 359.534C203.26 358.316 202.9 356.927 201.89 356.386C200.158 355.472 199.076 351.883 199.076 351.883C199.076 351.883 196.587 353.88 195.505 354.016C194.423 354.151 193.521 352.221 190.058 351.747C186.56 351.307 184.756 352.594 184.756 352.594C183.457 356.115 182.916 361.566 182.772 364.715C184.54 365.053 187.425 365.46 191.429 365.46C198.679 365.426 197.597 362.683 199.834 361.905Z" fill="#3B2645"/>
<path d="M182.736 367.051C182.916 367.593 183.457 369.083 191.537 369.083C199.617 369.083 199.365 365.324 199.906 364.105C200.483 362.853 202.647 362.074 203.008 361.464C203.152 361.194 203.296 360.415 203.26 359.535C202.503 360.279 201.204 361.397 199.797 361.905C197.561 362.683 198.679 365.46 191.357 365.46C187.353 365.46 184.467 365.053 182.7 364.715C182.664 366.001 182.664 366.916 182.736 367.051Z" fill="#E5E5E5"/>
<path d="M266.348 169.997C266.348 169.997 276.195 191.124 278.829 207.816C281.462 224.508 275.835 269.743 276.664 273.603C277.494 277.462 282.111 289.313 282.796 305.226C283.446 321.139 280.812 345.416 280.812 345.416C280.812 345.416 272.805 348.768 267.178 346.127C267.178 346.127 262.813 320.259 260.396 309.391C257.98 298.522 257.98 285.791 255.31 279.832C252.641 273.873 245.716 231.991 243.732 225.253C243.732 225.253 236.409 258.908 229.628 274.009C222.847 289.11 220.971 290.701 218.915 299.402C216.859 308.104 202.359 339.592 200.663 345.45C200.663 345.45 192.836 349.174 186.271 345.89C186.271 345.89 190.131 307.427 197.056 292.191C203.982 276.955 204.811 276.548 206.362 265.443C207.913 254.337 201.529 205.819 218.843 174.805C218.807 174.771 243.082 169.827 266.348 169.997Z" fill="#AB8DA8"/>
<path d="M243.732 171.148C245.319 177.649 266.276 207.241 266.276 207.241L254.048 170.268L243.732 171.148Z" fill="#543753"/>
<path d="M234.57 216.823C234.57 216.823 237.744 223.865 253.543 222.883C253.543 222.883 244.886 224.678 245.679 234.259L243.732 225.287L241.531 234.767C241.531 234.767 242.108 225.355 230.818 222.104L238.213 222.308C238.249 222.274 234.606 219.836 234.57 216.823Z" fill="#543753"/>
<path d="M211.196 104.413C211.196 104.413 205.857 108.578 190.167 131.195C174.476 153.812 178.516 155.031 181.077 158.349C183.602 161.667 202.611 180.357 204.018 182.05C205.425 183.777 210.619 188.923 213.396 186.858C216.174 184.793 215.272 178.867 218.374 176.633C221.476 174.364 224.073 172.096 224.326 170.877C224.578 169.658 223.929 168.642 223.64 168.642C223.352 168.642 220.214 171.182 218.302 172.062C216.39 172.942 211.917 175.989 211.845 175.989C211.773 175.989 194.784 151.95 194.784 151.95L213.685 130.789L211.196 104.413Z" fill="#FFEDE5"/>
<path d="M211.557 112.065C211.557 112.065 204.559 120.09 206.434 139.186L213.757 131.026L211.557 112.065Z" fill="#DF845C"/>
<path d="M192.295 170.098L199.401 158.417L195.036 152.187L191.249 169.049L192.295 170.098Z" fill="#DF845C"/>
<path d="M236.878 100.418C241.495 101.468 253.651 107.833 261.298 121.173C268.945 134.513 266.24 136.883 263.318 140.709L262.2 157.841L267.105 172.163L218.843 174.804C218.843 174.804 222.594 160.042 220.646 155.37C218.698 150.697 197.561 124.288 209.284 106.783C215.236 97.811 236.878 100.418 236.878 100.418Z" fill="#FFEDE5"/>
<path d="M262.2 157.808L263.318 140.675C266.24 136.883 268.981 134.479 261.298 121.139C259.423 117.889 257.294 115.045 255.058 112.573C254.661 117.787 253.507 124.017 250.802 130.484C244.706 145.145 220.25 144.264 213.721 143.757C216.859 149.377 219.889 153.677 220.574 155.302C220.935 156.149 221.115 157.334 221.151 158.688C239.656 160.347 262.2 157.808 262.2 157.808Z" fill="#AB8DA8"/>
<path d="M237.275 100.52C237.131 100.486 236.987 100.452 236.878 100.418C236.878 100.418 236.554 100.385 236.013 100.317C228.113 102.348 221.945 106.953 217.833 113.928C216.462 109.391 215.705 105.159 216.174 101.942C216.102 101.976 216.029 102.01 215.957 102.01C215.777 102.078 215.597 102.145 215.416 102.213C214.767 102.45 214.154 102.721 213.577 103.026C209.537 107.122 208.13 114.774 209.392 125.88C209.97 130.857 210.98 135.631 211.881 139.288C211.881 139.626 211.881 139.965 211.881 140.303C212.062 140.642 212.206 140.947 212.386 141.285C212.458 141.454 212.567 141.624 212.639 141.793C213.072 142.606 213.505 143.384 213.937 144.163C213.613 143.046 213.108 141.319 212.603 139.22C212.603 135.258 212.963 129.604 214.551 123.814C215.344 120.835 216.39 118.16 217.653 115.722C221.909 128.69 230.638 143.249 231.179 144.129L232.225 145.856L231.865 143.892C231.828 143.689 228.041 123.679 230.674 111.896C232.333 104.481 234.858 101.841 236.446 100.892C236.878 100.791 237.275 100.689 237.708 100.622C237.564 100.588 237.419 100.554 237.275 100.52ZM213.829 123.679C212.567 128.25 212.098 132.753 211.953 136.41C209.537 125.609 207.3 108.409 215.416 102.416C215.056 105.836 215.921 110.203 217.364 114.842C215.885 117.483 214.731 120.429 213.829 123.679ZM229.917 111.795C227.752 121.512 229.881 136.714 230.782 142.098C228.257 137.662 221.548 125.541 218.122 114.842C221.873 108.104 227.392 103.635 234.642 101.4C233.055 102.958 231.215 105.971 229.917 111.795Z" fill="#AB8DA8"/>
<path d="M238.862 156.758H220.935C220.719 156.758 220.574 156.623 220.574 156.419C220.574 156.216 220.719 156.081 220.935 156.081H238.862C239.079 156.081 239.223 156.216 239.223 156.419C239.223 156.623 239.042 156.758 238.862 156.758Z" fill="#472938"/>
<path d="M244.381 173.382L254.697 172.807L249.395 158.823C246.87 158.959 244.128 159.094 241.207 159.162C242.181 164.613 243.227 169.658 244.381 173.382Z" fill="#DF845C"/>
<path d="M236.986 126.049C236.986 126.049 237.6 132.617 238.61 141.116C239.8 140.675 240.99 140.168 242.109 139.558L236.986 126.049Z" fill="#DF845C"/>
<path d="M238.646 141.116C239.331 146.736 240.197 153.169 241.243 159.196C244.129 159.128 246.906 158.993 249.431 158.857L242.145 139.592C240.99 140.168 239.836 140.676 238.646 141.116Z" fill="#543753"/>
<path d="M221.224 174.635L222.234 174.567C222.234 174.567 223.857 173.247 224.181 171.52C223.749 172.333 222.63 173.45 221.224 174.635Z" fill="#DF845C"/>
<path d="M237.672 100.621C237.672 100.621 252.858 103.499 255.022 110.373C257.222 117.246 258.845 157.808 258.845 157.808C258.845 157.808 274.031 198.268 275.654 204.43C277.278 210.593 280.668 220.513 280.885 222.511C281.101 224.508 279.009 229.113 278.288 229.858C277.566 230.603 273.238 232.126 272.264 232.33C271.29 232.533 265.41 228.91 265.699 228.165C265.987 227.42 268.332 226.1 268.332 226.1L268.765 223.357C268.765 223.357 264.545 215.638 264.833 211.71C265.122 207.816 264.472 205.277 263.066 202.907C261.659 200.537 244.742 165.053 243.01 158.857C241.279 152.661 236.265 124.999 236.373 119.785C236.482 114.571 237.672 100.621 237.672 100.621Z" fill="#FFEDE5"/>
<path d="M142.878 52.0012L145.908 67.7114C146.305 69.7767 147.82 71.5035 149.912 72.2822L156.621 74.7539C156.621 74.7539 149.551 84.6743 135.375 87.4845C121.199 90.2609 113.444 78.2074 113.444 78.2074L119.432 74.009C120.767 73.061 121.488 71.5712 121.38 70.0137L120.298 55.4209L142.878 52.0012Z" fill="#FFEDE5"/>
<path d="M121.127 66.3571C121.127 66.3571 138.117 75.7696 142.878 52.0012L120.334 55.387L121.127 66.3571Z" fill="#DF845C"/>
<path d="M147.76 47.0128C148.401 44.4648 147.662 42.1208 146.111 41.7773C144.56 41.4339 142.783 43.221 142.143 45.769C141.503 48.317 142.241 50.661 143.792 51.0045C145.343 51.3479 147.12 49.5608 147.76 47.0128Z" fill="#FFEDE5"/>
<path d="M117.993 53.9334C119.373 53.1854 119.361 50.7412 117.967 48.4741C116.572 46.207 114.323 44.9755 112.943 45.7234C111.563 46.4714 111.574 48.9156 112.969 51.1827C114.363 53.4498 116.612 54.6813 117.993 53.9334Z" fill="#DF845C"/>
<path d="M144.032 47.8028C143.96 47.8028 143.924 47.8028 143.852 47.7689C143.672 47.6674 143.599 47.4642 143.708 47.3288L144.97 45.0264C145.078 44.8571 145.295 44.7894 145.439 44.891C145.619 44.9926 145.692 45.1957 145.583 45.3311L144.321 47.6335C144.285 47.7351 144.177 47.8028 144.032 47.8028Z" fill="#472938"/>
<path d="M116.871 50.9855C116.799 50.9855 116.691 50.9516 116.618 50.8839L114.166 48.7508C114.021 48.6154 114.021 48.4122 114.13 48.2768C114.274 48.1414 114.49 48.1414 114.635 48.2429L117.087 50.376C117.232 50.5114 117.232 50.7146 117.123 50.85C117.051 50.9516 116.943 50.9855 116.871 50.9855Z" fill="#472938"/>
<path d="M111.532 36.2909C111.532 36.2909 117.448 56.9443 119.684 59.9238C121.885 62.8695 128.702 65.612 129.856 65.7813C131.011 65.9506 135.592 65.5104 136.638 64.664C137.684 63.8175 143.311 58.2309 144.176 54.6081C145.006 50.9853 145.223 31.8555 141.652 28.3681C138.044 24.8807 109.729 27.7248 111.532 36.2909Z" fill="#FFEDE5"/>
<path d="M130.073 50.9855C129.171 50.9855 127.584 50.5453 127.367 50.4437C127.079 50.3083 127.043 50.3083 127.151 44.3493C127.151 43.943 127.151 43.6383 127.151 43.5367C127.115 43.2658 126.249 41.8776 125.492 40.7265C125.384 40.5572 125.42 40.354 125.6 40.2524C125.78 40.1509 125.997 40.1847 126.105 40.354C126.754 41.3359 127.909 43.0288 127.909 43.5028C127.909 43.6044 127.909 43.9091 127.909 44.3154C127.872 45.5343 127.836 49.0217 127.872 49.8343C128.305 49.9697 129.532 50.2745 130.145 50.2406C130.65 50.2067 131.443 49.6312 131.804 49.2926C131.948 49.1571 132.165 49.1571 132.309 49.2926C132.453 49.428 132.453 49.6311 132.309 49.7666C132.201 49.8682 131.083 50.8839 130.181 50.9178C130.145 50.9855 130.109 50.9855 130.073 50.9855Z" fill="#472938"/>
<path d="M125.6 54.5742L135.628 53.2876C135.628 53.2876 134.87 57.6214 131.299 58.3663C127.728 59.1112 125.6 54.5742 125.6 54.5742Z" fill="white"/>
<path d="M135.555 42.521C134.942 42.5887 134.401 42.1824 134.329 41.6068L134.257 40.8281C134.185 40.2525 134.618 39.7446 135.231 39.6769C135.844 39.6092 136.385 40.0155 136.457 40.5911L136.529 41.3698C136.638 41.9454 136.169 42.4533 135.555 42.521Z" fill="#472938"/>
<path d="M121.524 44.8908C120.911 44.9924 120.334 44.6199 120.225 44.0443L120.081 43.2656C119.973 42.69 120.37 42.1483 120.983 42.0467C121.596 41.9451 122.173 42.3176 122.281 42.8932L122.426 43.6719C122.534 44.2475 122.137 44.7892 121.524 44.8908Z" fill="#472938"/>
<path d="M131.804 37.7469C131.804 37.7469 136.998 36.0202 139.776 37.5438C139.776 37.5438 139.307 35.4107 136.457 35.5123C133.608 35.6139 131.768 35.9863 131.48 36.6296C131.191 37.2729 131.804 37.7469 131.804 37.7469Z" fill="#472938"/>
<path d="M124.085 39.0674C124.085 39.0674 118.602 38.5934 116.33 40.7265C116.33 40.7265 116.222 38.5257 118.999 37.984C121.777 37.4422 123.652 37.3745 124.085 37.9163C124.554 38.4918 124.085 39.0674 124.085 39.0674Z" fill="#472938"/>
<path d="M115.031 47.7688L113.985 39.2365C113.985 39.2365 122.606 40.083 129.099 33.9208C135.592 27.7586 140.1 31.2122 140.1 31.2122L144.609 42.7578L145.691 41.7082C145.691 41.7082 145.944 30.9413 145.691 30.5689C145.439 30.1964 143.527 29.0791 143.527 29.0791C143.527 29.0791 142.914 18.5831 129.027 16.5177C115.14 14.4524 111.46 28.0972 107.42 28.6389L109.044 30.5689C109.044 30.5689 108.502 32.1263 108.539 34.0562C108.575 35.9862 112.975 45.7373 112.975 45.7373L115.031 47.7688Z" fill="#3B2645"/>
<path d="M95.7695 83.8276C95.7695 83.8276 87.5815 86.0283 87.9422 102.043C87.9422 102.043 79.8263 113.487 78.9245 127.166C78.9245 127.166 59.0856 110.068 58.4002 107.968C57.6788 105.835 58.0756 98.3527 57.6067 96.5244C57.1377 94.696 55.4064 92.7661 55.6228 90.1929C55.8392 87.6197 56.3081 83.9969 56.0556 83.6244C55.8031 83.252 52.0157 83.6583 51.3664 86.6039C50.7172 89.5496 50.5368 92.9015 50.5368 92.9015C50.5368 92.9015 44.4408 94.3236 43.6834 95.3732C42.9259 96.4228 43.3587 99.1992 43.3587 99.1992C43.3587 99.1992 43.503 108.544 44.513 109.594C45.523 110.643 50.3564 112.946 51.3664 113.589C52.3764 114.232 63.7748 138.847 68.7165 144.434C73.6582 150.02 78.2391 151.578 82.5316 150.257C86.824 148.937 98.6913 133.904 102.515 126.929C106.338 119.954 104.932 84.6402 95.7695 83.8276Z" fill="#FFEDE5"/>
<path d="M104.318 107.088C99.9537 106.073 97.1041 106.682 97.1041 106.682C97.1041 106.682 102.911 126.388 93.9298 139.186C97.4648 134.784 100.783 130.044 102.479 126.963C104.102 123.95 104.787 115.621 104.318 107.088Z" fill="#DF845C"/>
<path d="M78.8883 127.166L82.279 129.502L79.0326 125.71L78.8883 127.166Z" fill="#DF845C"/>
<path d="M46.2082 95.204C46.2082 95.204 52.3763 95.6441 52.701 95.9827C53.0256 96.3213 53.5306 108.273 52.3763 109.086C51.186 109.932 45.2704 109.797 45.2704 109.797C45.2704 109.797 52.3403 110.406 53.0978 110.102C53.8552 109.797 55.2259 105.598 55.4784 103.431C55.7309 101.265 54.2881 95.5426 53.747 95.4071C53.206 95.2717 46.2082 95.204 46.2082 95.204Z" fill="#DF845C"/>
<path d="M174.151 335.055C174.404 327.606 175.233 316.67 175.089 306.547C174.873 291.988 173.322 275.6 172.564 270.826C171.771 266.052 173.61 243.943 173.61 243.943L141.002 248.209C141.796 250.579 147.711 271.368 147.964 280.442C148.252 289.516 160.12 331.771 160.589 335.157C160.661 335.597 160.697 336.071 160.769 336.545C163.763 336.884 169.498 337.154 174.151 335.055Z" fill="#FFEDE5"/>
<path d="M164.051 345.856C164.051 345.856 163.691 342.233 168.019 341.353C172.348 340.472 174.332 342.504 174.332 342.504C174.079 340.913 174.079 338.306 174.187 335.055C169.534 337.154 163.799 336.884 160.841 336.545C161.13 339.186 161.202 342.335 160.913 344.908C161.382 346.059 164.051 345.856 164.051 345.856Z" fill="white"/>
<path d="M159.507 361.295C164.124 363.564 162.789 368.643 168.56 369.895C173.358 370.945 180.644 370.335 183.494 370.031C184.251 369.963 184.864 369.387 185.009 368.676C185.081 368.168 185.153 367.491 185.117 366.78C181.51 367.085 173.033 367.694 169.642 366.916C165.314 365.934 164.268 361.769 162.104 360.618C160.48 359.772 159.434 358.654 159.002 358.146C158.929 358.858 158.821 359.467 158.785 359.907C158.641 360.517 158.965 361.058 159.507 361.295Z" fill="#3B2645"/>
<path d="M183.494 362.243C182.628 361.092 181.365 358.62 180.067 355.81C179.309 358.35 170.652 357.165 169.534 356.894C168.416 356.623 164.087 345.856 164.087 345.856C164.087 345.856 161.418 346.025 160.913 344.874C160.841 345.45 160.769 346.025 160.661 346.533C160.228 348.7 159.434 354.625 159.002 358.146C159.434 358.654 160.48 359.738 162.104 360.618C164.304 361.769 165.314 365.934 169.642 366.916C173.033 367.694 181.51 367.085 185.117 366.78C185.009 365.426 184.648 363.801 183.494 362.243Z" fill="#AB8DA8"/>
<path d="M169.498 356.894C170.616 357.164 179.273 358.35 180.031 355.81C177.289 349.919 174.295 342.504 174.295 342.504C174.295 342.504 172.312 340.472 167.983 341.353C163.655 342.233 164.015 345.856 164.015 345.856C164.015 345.856 168.38 356.657 169.498 356.894Z" fill="#3B2645"/>
<path d="M162.369 271.888C165.794 271.389 168.464 270.34 168.333 269.545C168.201 268.751 165.318 268.512 161.893 269.011C158.468 269.511 155.798 270.56 155.929 271.355C156.061 272.149 158.944 272.388 162.369 271.888Z" fill="#E0855C"/>
<path d="M81.7381 335.631C81.7741 328.148 82.207 317.279 82.712 307.156C83.6137 289.177 87.7979 273.365 87.7979 271.436C87.7979 263.784 88.7358 240.049 89.2408 240.625L119.432 247.498C118.566 249.834 110.306 269.472 109.693 278.546C109.08 287.62 95.8778 332.82 95.2646 336.172C95.1924 336.612 95.1203 337.053 95.0482 337.56C92.0543 337.764 86.319 337.865 81.7381 335.631Z" fill="#FFEDE5"/>
<path d="M91.4411 346.736C91.4411 346.736 91.9461 343.113 87.6537 342.098C83.3613 341.082 81.3052 343.046 81.3052 343.046C81.6299 341.454 81.7381 338.847 81.7381 335.597C86.3191 337.831 92.0543 337.73 95.0482 337.493C94.6875 340.1 94.4711 343.249 94.6875 345.856C94.0743 347.007 91.4411 346.736 91.4411 346.736Z" fill="white"/>
<path d="M95.4089 362.311C90.6837 364.444 91.874 369.557 86.0666 370.606C81.2331 371.487 73.9829 370.674 71.1333 370.268C70.3758 370.166 69.7626 369.591 69.6905 368.846C69.6183 368.338 69.5823 367.661 69.6544 366.95C73.2615 367.356 81.702 368.236 85.1288 367.593C89.4933 366.746 90.6837 362.616 92.884 361.532C94.5432 360.72 95.6254 359.67 96.0943 359.162C96.1664 359.873 96.2025 360.483 96.2386 360.957C96.3107 361.532 95.95 362.074 95.4089 362.311Z" fill="#3B2645"/>
<path d="M71.4218 362.514C72.3236 361.397 73.6942 358.959 75.101 356.183C75.7863 358.756 84.4433 357.842 85.5976 357.605C86.7519 357.368 91.4411 346.736 91.4411 346.736C91.4411 346.736 94.0742 347.007 94.6514 345.856C94.6874 346.431 94.7596 347.007 94.8317 347.515C95.1924 349.716 95.7695 355.641 96.0942 359.162C95.6253 359.67 94.5431 360.72 92.8839 361.532C90.6475 362.616 89.4932 366.712 85.1287 367.593C81.738 368.27 73.2614 367.39 69.6543 366.949C69.7625 365.629 70.2315 364.004 71.4218 362.514Z" fill="#AB8DA8"/>
<path d="M85.5615 357.605C84.4072 357.842 75.7503 358.756 75.0649 356.183C78.0227 350.359 81.2691 343.046 81.2691 343.046C81.2691 343.046 83.3251 341.082 87.6175 342.098C91.91 343.113 91.405 346.736 91.405 346.736C91.405 346.736 86.7158 357.368 85.5615 357.605Z" fill="#3B2645"/>
<path d="M102.199 274.327C102.359 273.537 99.7277 272.405 96.3224 271.797C92.9171 271.19 90.0268 271.338 89.8669 272.127C89.707 272.917 92.3379 274.05 95.7432 274.658C99.1485 275.265 102.039 275.117 102.199 274.327Z" fill="#E0855C"/>
<path d="M169.642 179.409C169.642 179.409 175.702 215.434 173.61 243.943C173.61 243.943 161.887 252.17 134.509 247.261L130.289 224.61L123.364 247.396C123.364 247.396 94.9759 248.988 87.365 238.661C87.365 238.661 91.441 195.932 100.062 178.664C108.683 161.397 166.829 165.257 169.642 179.409Z" fill="#3B2645"/>
<path d="M130.289 224.61C130.289 224.61 126.899 221.8 126.538 221.529C126.177 221.258 123.039 209.611 123.039 209.611L126.502 237.07L130.289 224.61Z" fill="#3B2645"/>
<path d="M145.8 244.552C139.704 244.552 135.303 244.112 135.195 244.112C135.087 244.112 135.015 244.011 135.051 243.909C135.051 243.807 135.159 243.74 135.267 243.774C135.52 243.807 159.723 246.211 173.827 239.541C173.899 239.508 174.007 239.541 174.079 239.609C174.115 239.677 174.079 239.778 174.007 239.846C165.747 243.74 154.168 244.552 145.8 244.552Z" fill="white"/>
<path d="M124.482 243.875C124.482 243.875 124.446 243.875 124.482 243.875C98.2225 241.81 87.798 234.937 87.6898 234.869C87.6176 234.801 87.5816 234.7 87.6537 234.632C87.7259 234.564 87.8341 234.53 87.9062 234.598C88.0144 234.666 98.3667 241.471 124.518 243.537C124.626 243.537 124.698 243.638 124.698 243.706C124.626 243.807 124.554 243.875 124.482 243.875Z" fill="white"/>
<path d="M152.04 73.0608C152.04 73.0608 146.485 83.523 133.752 84.3017C121.019 85.0804 116.077 76.4127 116.077 76.4127L95.7695 83.8615C95.7695 83.8615 99.4487 96.1182 97.1041 106.716C97.1041 106.716 102.479 124.728 102.479 126.997C102.479 129.265 106.987 138.881 107.276 141.149C107.565 143.418 100.062 178.698 100.062 178.698C100.062 178.698 135.916 188.585 144.249 188.246C152.581 187.908 169.642 179.409 169.642 179.409C169.642 179.409 167.947 149.851 169.642 142.572C171.338 135.292 177.686 115.824 177.686 115.824C177.686 115.824 172.312 90.3284 173.827 80.171L152.04 73.0608Z" fill="#AB8DA8"/>
<path d="M173.574 115.417C173.394 115.417 173.249 115.316 173.213 115.146C170.039 102.958 169.426 79.0876 169.426 78.8505C169.426 78.6474 169.57 78.512 169.787 78.512C170.003 78.512 170.147 78.6474 170.147 78.8505C170.147 79.0876 170.761 102.89 173.935 115.011C173.971 115.18 173.863 115.383 173.682 115.417C173.61 115.417 173.574 115.417 173.574 115.417Z" fill="#472938"/>
<path d="M98.2944 111.05C98.2223 111.05 98.1141 111.016 98.0419 110.982C97.8976 110.847 97.8616 110.643 98.0058 110.508C104.354 103.77 98.5108 83.0151 98.4387 82.812C98.4026 82.6427 98.5108 82.4395 98.6912 82.4057C98.8715 82.3718 99.088 82.4734 99.124 82.6427C99.3765 83.523 105.112 103.939 98.5108 110.948C98.4748 111.016 98.3666 111.05 98.2944 111.05Z" fill="#472938"/>
<path d="M131.804 87.9922C119.179 87.9922 112.651 77.8347 112.579 77.6993C112.47 77.53 112.542 77.3269 112.723 77.2253C112.903 77.1237 113.12 77.1914 113.228 77.3607C113.3 77.4623 120.117 88.0937 133.283 87.2473C143.96 86.5701 149.731 80.1371 151.643 78.004C152.292 77.2591 152.473 77.0899 152.761 77.1576C152.906 77.1914 153.014 77.293 153.05 77.4284C153.122 77.5977 153.014 77.8009 152.797 77.8347C152.761 77.8347 152.761 77.8347 152.725 77.8347C152.617 77.9363 152.401 78.2072 152.184 78.4442C150.236 80.6111 144.321 87.2134 133.319 87.9245C132.814 87.9922 132.309 87.9922 131.804 87.9922Z" fill="#472938"/>
<path d="M173.827 80.171C173.827 80.171 186.956 79.4938 189.734 98.9284C189.734 98.9284 203.224 122.968 204.775 130.653C206.326 138.339 203.549 149.174 200.158 154.727C196.768 160.279 185.477 178.224 183.421 180.967C181.365 183.709 181.69 184.42 176.315 184.793C176.315 184.793 172.348 185.47 171.554 185.808C170.761 186.147 165.963 188.551 164.989 188.212C164.015 187.908 163.077 186.689 163.258 186.452C163.474 186.181 168.488 183.641 168.488 183.641C168.488 183.641 160.408 184.928 159.651 184.894C158.893 184.86 157.775 183.269 157.775 183.269C157.775 183.269 155.142 182.152 154.817 181.271C154.493 180.391 157.378 178.63 157.378 178.63C157.378 178.63 155.647 178.224 155.034 177.378C154.42 176.531 165.133 171.148 166.432 171.215C167.731 171.283 176.532 172.333 176.532 172.333C176.532 172.333 188.219 137.053 188.327 134.852C188.435 132.651 179.057 123.476 177.614 115.824C177.686 115.824 171.662 89.2111 173.827 80.171Z" fill="#FFEDE5"/>
<path d="M157.27 183.371C157.126 183.371 157.017 183.303 156.945 183.167C156.873 182.998 156.945 182.795 157.126 182.727L165.278 179.24C165.458 179.172 165.674 179.24 165.747 179.409C165.819 179.579 165.747 179.782 165.566 179.849L157.414 183.337C157.378 183.371 157.342 183.371 157.27 183.371Z" fill="#472938"/>
<path d="M157.45 179.003C157.306 179.003 157.198 178.935 157.126 178.834C157.018 178.665 157.09 178.461 157.27 178.36L165.242 174.364C165.422 174.263 165.638 174.331 165.747 174.5C165.855 174.669 165.783 174.872 165.602 174.974L157.631 178.969C157.559 178.969 157.486 179.003 157.45 179.003Z" fill="#472938"/>
</svg>
